<?xml version="1.0" standalone="no"?><?xml-stylesheet type="text/css" href="https://wps.processon.com/themes/default/wps/mind/icons/icons.css" ?><!DOCTYPE svg PUBLIC "-//W3C//DTD SVG 1.1//EN" "http://www.w3.org/Graphics/SVG/1.1/DTD/svg11.dtd"><svg xmlns="http://www.w3.org/2000/svg" xmlns:xlink="http://www.w3.org/1999/xlink" version="1.1" width="1134" height="894" style="outline: none; display: block; background: none; top: 0px; left: 0px; font-family: &quot;PingFang SC&quot;, &quot;Apple System&quot;, &quot;SF Pro SC&quot;, &quot;SF Pro Display&quot;, &quot;Helvetica Neue&quot;, Arial, &quot;Hiragino Sans GB&quot;, STHeiti, &quot;Microsoft YaHei&quot;, &quot;Microsoft JhengHei&quot;, &quot;Source Han Sans SC&quot;, &quot;Noto Sans CJK SC&quot;, &quot;Source Han Sans CN&quot;, sans-serif; z-index: 1; font-size: 12px;" id="mind-svg-con"><defs></defs><g id="svgbackgroundid"><defs></defs><rect width="1134" height="894" fill="transparent"></rect></g><g id="export-watermark"><defs><pattern patternUnits="userSpaceOnUse" id="pattern_mark_0" width="300" height="300"><text x="150" y="100" fill="rgba(0,0,0,0.1)" font-size="18" transform="rotate(-45, 150, 150)" style="dominant-baseline: middle; text-anchor: middle;"></text></pattern></defs><rect fill="url(#pattern_mark_0)" x="0" y="0" width="1134" height="894" id="rect_mark_0" pointer-events="none"></rect></g><g class="po-mind-container" transform="matrix(1,0,0,1,226,433.5)"><g class="po-mind-cell-container"></g><g class="po-mind-line-container"><g stroke-dasharray="none" stroke-width="3" stroke="#eed484" fill="none" from="root" to="20625f7c-9412-42a1-a6bb-93eba991a2ad" opacity="1"><path d="M 201 0 L 225 0 L 225 -197.5 C 225 -197.5 225 -205.5 233 -205.5 L 265 -205.5"></path></g><g stroke-dasharray="none" stroke-width="3" stroke="#729b8d" fill="none" from="root" to="c72b17b8-c55c-4a90-a296-051bbaa2b717"><path d="M 201 0 L 225 0 L 225 197.5 C 225 197.5 225 205.5 233 205.5 L 265 205.5"></path></g><g stroke-dasharray="none" stroke-width="2" stroke="#eed484" fill="none" from="20625f7c-9412-42a1-a6bb-93eba991a2ad" to="07c9f4f4-f560-4a74-a1d3-9b11ca4188ef"><path d="M 392.8 -205.5 L 404.8 -205.5 L 404.8 -388.5 C 404.8 -388.5 404.8 -394.5 410.8 -394.5 L 416.8 -394.5"></path></g><g stroke-dasharray="none" stroke-width="2" stroke="#eed484" fill="none" from="20625f7c-9412-42a1-a6bb-93eba991a2ad" to="b0941f02-9360-4b5d-b8fe-6988b0baadd0"><path d="M 392.8 -205.5 L 404.8 -205.5 L 404.8 -253.5 C 404.8 -253.5 404.8 -259.5 410.8 -259.5 L 416.8 -259.5"></path></g><g stroke-dasharray="none" stroke-width="2" stroke="#eed484" fill="none" from="20625f7c-9412-42a1-a6bb-93eba991a2ad" to="0a807daf-18e3-4d09-a73b-8aa7c3d7903f"><path d="M 392.8 -205.5 L 404.8 -205.5 L 404.8 -130.5 C 404.8 -130.5 404.8 -124.5 410.8 -124.5 L 416.8 -124.5"></path></g><g stroke-dasharray="none" stroke-width="2" stroke="#eed484" fill="none" from="20625f7c-9412-42a1-a6bb-93eba991a2ad" to="74064f49-c87b-460e-9b56-2218d0f65f35"><path d="M 392.8 -205.5 L 404.8 -205.5 L 404.8 -76.5 C 404.8 -76.5 404.8 -70.5 410.8 -70.5 L 416.8 -70.5"></path></g><g stroke-dasharray="none" stroke-width="2" stroke="#eed484" fill="none" from="20625f7c-9412-42a1-a6bb-93eba991a2ad" to="3c68ff98-6ed6-4759-a374-621a10d34a9f"><path d="M 392.8 -205.5 L 404.8 -205.5 L 404.8 -22.5 C 404.8 -22.5 404.8 -16.5 410.8 -16.5 L 416.8 -16.5"></path></g><g stroke-dasharray="none" stroke-width="2" stroke="#eed484" fill="none" from="b0941f02-9360-4b5d-b8fe-6988b0baadd0" to="3851da67-892c-4d60-a935-c7d76879c076" opacity="1"><path d="M 559.2 -259.5 L 571.2 -259.5 L 571.2 -334.5 C 571.2 -334.5 571.2 -340.5 577.2 -340.5 L 583.2 -340.5"></path></g><g stroke-dasharray="none" stroke-width="2" stroke="#eed484" fill="none" from="b0941f02-9360-4b5d-b8fe-6988b0baadd0" to="05d34795-0806-4f64-ac10-47457818bd72" opacity="1"><path d="M 559.2 -259.5 L 571.2 -259.5 L 571.2 -280.5 C 571.2 -280.5 571.2 -286.5 577.2 -286.5 L 583.2 -286.5"></path></g><g stroke-dasharray="none" stroke-width="2" stroke="#eed484" fill="none" from="b0941f02-9360-4b5d-b8fe-6988b0baadd0" to="0e475334-603e-4f05-9c06-f4dd31a779ac" opacity="1"><path d="M 559.2 -259.5 L 571.2 -259.5 L 571.2 -238.5 C 571.2 -238.5 571.2 -232.5 577.2 -232.5 L 583.2 -232.5"></path></g><g stroke-dasharray="none" stroke-width="2" stroke="#eed484" fill="none" from="b0941f02-9360-4b5d-b8fe-6988b0baadd0" to="04566b59-454f-4446-b302-f1b4ccc64514" opacity="1"><path d="M 559.2 -259.5 L 571.2 -259.5 L 571.2 -184.5 C 571.2 -184.5 571.2 -178.5 577.2 -178.5 L 583.2 -178.5"></path></g><g stroke-dasharray="none" stroke-width="2" stroke="#729b8d" fill="none" from="c72b17b8-c55c-4a90-a296-051bbaa2b717" to="a88f9311-40c3-4ec9-a114-4ef63925b4ea"><path d="M 382.8 205.5 L 394.8 205.5 L 394.8 103.5 C 394.8 103.5 394.8 97.5 400.8 97.5 L 406.8 97.5"></path></g><g stroke-dasharray="none" stroke-width="2" stroke="#729b8d" fill="none" from="c72b17b8-c55c-4a90-a296-051bbaa2b717" to="797ec7dd-b693-4167-b565-c6b72a88bf8c"><path d="M 382.8 205.5 L 394.8 205.5 L 394.8 307.5 C 394.8 307.5 394.8 313.5 400.8 313.5 L 406.8 313.5"></path></g><g stroke-dasharray="none" stroke-width="2" stroke="#729b8d" fill="none" from="a88f9311-40c3-4ec9-a114-4ef63925b4ea" to="da38f88d-4637-47da-b63f-9ad0a35d15c9" opacity="1"><path d="M 631.2 97.5 L 643.2 97.5 L 643.2 49.5 C 643.2 49.5 643.2 43.5 649.2 43.5 L 655.2 43.5"></path></g><g stroke-dasharray="none" stroke-width="2" stroke="#729b8d" fill="none" from="a88f9311-40c3-4ec9-a114-4ef63925b4ea" to="31803359-abff-4ce6-b767-043a9a0abaa5"><path d="M 631.2 97.5 L 643.2 97.5 L 643.2 97.5 C 643.2 97.5 643.2 97.5 643.2 97.5 L 655.2 97.5"></path></g><g stroke-dasharray="none" stroke-width="2" stroke="#729b8d" fill="none" from="a88f9311-40c3-4ec9-a114-4ef63925b4ea" to="df3aeb77-6821-4fed-92dc-9ea069213acb"><path d="M 631.2 97.5 L 643.2 97.5 L 643.2 145.5 C 643.2 145.5 643.2 151.5 649.2 151.5 L 655.2 151.5"></path></g><g stroke-dasharray="none" stroke-width="2" stroke="#729b8d" fill="none" from="797ec7dd-b693-4167-b565-c6b72a88bf8c" to="0d35c36e-a94f-4677-b03e-c8655dd918ab" opacity="1"><path d="M 592.2 313.5 L 604.2 313.5 L 604.2 211.5 C 604.2 211.5 604.2 205.5 610.2 205.5 L 616.2 205.5"></path></g><g stroke-dasharray="none" stroke-width="2" stroke="#729b8d" fill="none" from="797ec7dd-b693-4167-b565-c6b72a88bf8c" to="5281c95e-c064-46d0-8728-d7b74f089649" opacity="1"><path d="M 592.2 313.5 L 604.2 313.5 L 604.2 265.5 C 604.2 265.5 604.2 259.5 610.2 259.5 L 616.2 259.5"></path></g><g stroke-dasharray="none" stroke-width="2" stroke="#729b8d" fill="none" from="797ec7dd-b693-4167-b565-c6b72a88bf8c" to="73a3f608-ac6a-4201-8be4-95979b654ffc" opacity="1"><path d="M 592.2 313.5 L 604.2 313.5 L 604.2 313.5 C 604.2 313.5 604.2 313.5 604.2 313.5 L 616.2 313.5"></path></g><g stroke-dasharray="none" stroke-width="2" stroke="#729b8d" fill="none" from="797ec7dd-b693-4167-b565-c6b72a88bf8c" to="beadcb4a-b3a1-434e-99ee-d548b3136d67" opacity="1"><path d="M 592.2 313.5 L 604.2 313.5 L 604.2 361.5 C 604.2 361.5 604.2 367.5 610.2 367.5 L 616.2 367.5"></path></g><g stroke-dasharray="none" stroke-width="2" stroke="#729b8d" fill="none" from="797ec7dd-b693-4167-b565-c6b72a88bf8c" to="aaacab17-1441-4df2-a497-33a5bc70c40f" opacity="1"><path d="M 592.2 313.5 L 604.2 313.5 L 604.2 415.5 C 604.2 415.5 604.2 421.5 610.2 421.5 L 616.2 421.5"></path></g></g><g class="po-mind-generalize-container"><g summary="3f81484f-f411-4b89-8a58-78d39ebb591c" class="summary-line" stroke-width="2" stroke="#c7654e" fill="none"><path d="M 735.6 -354.5L 737.6 -354.5C 741.6 -354.5 745.6 -350.5 745.6 -346.5L 745.6 -267.5C 745.6 -263.5 749.6 -259.5 755.6 -259.5M 735.6 -164.5L 737.6 -164.5C 741.6 -164.5 745.6 -168.5 745.6 -172.5L 745.6 -251.5C 745.6 -255.5 749.6 -259.5 755.6 -259.5"></path></g><g summary="2bc0f66f-b611-4b13-9c8c-8e766106e3e5" class="summary-line" stroke-width="2" stroke="#c7654e" fill="none"><path d="M 563.2 -138.5L 565.2 -138.5C 569.2 -138.5 573.2 -134.5 573.2 -130.5L 573.2 -78.5C 573.2 -74.5 577.2 -70.5 583.2 -70.5M 563.2 -2.5L 565.2 -2.5C 569.2 -2.5 573.2 -6.5 573.2 -10.5L 573.2 -62.5C 573.2 -66.5 577.2 -70.5 583.2 -70.5"></path></g><g summary="a74961f3-8837-4aeb-a7c0-5efe5a2259a0" class="summary-line" stroke-width="2" stroke="#c7654e" fill="none"><path d="M 744.6 191.5L 746.6 191.5C 750.6 191.5 754.6 195.5 754.6 199.5L 754.6 305.5C 754.6 309.5 758.6 313.5 764.6 313.5M 744.6 435.5L 746.6 435.5C 750.6 435.5 754.6 431.5 754.6 427.5L 754.6 321.5C 754.6 317.5 758.6 313.5 764.6 313.5"></path></g><g summary="48d0319a-997e-422d-9c89-f397c72d2b15" class="summary-line" stroke-width="2" stroke="#c7654e" fill="none"><path d="M 795.6 29.5L 797.6 29.5C 801.6 29.5 805.6 33.5 805.6 37.5L 805.6 89.5C 805.6 93.5 809.6 97.5 815.6 97.5M 795.6 165.5L 797.6 165.5C 801.6 165.5 805.6 161.5 805.6 157.5L 805.6 105.5C 805.6 101.5 809.6 97.5 815.6 97.5"></path></g></g><g class="po-mind-associative-line-container"><g id="line_ac98cf50-2fab-4836-8780-e671ba2112c2" class="connection-svg"><path d="M 669.6 -67.3 C 802.5 -58.16668701171875  802.5 -196.16668701171875  797.8000000000001 -243.5" fill="none" stroke-linejoin="round" stroke-opacity="0" class="connection-line-bg" stroke-width="6" stroke="#c7654e" style="pointer-events: null"></path><path d="M 669.6 -67.3 C 802.5 -58.16668701171875  802.5 -196.16668701171875  797.8000000000001 -243.5" fill="none" stroke-linejoin="round" class="connection-line" stroke-dasharray="10,5" stroke-width="2" stroke="#c7654e" style="pointer-events: null"></path><path d="M793.6149475285098,-235.0450998935012 L797.8000000000001,-243.5 L803.5660108104695,-236.03319885536322 L797.8000000000001,-243.5" fill="#c7654e" class="connection-end-arrow" stroke-width="2" stroke="#c7654e"></path><path d="M669.6 -67.3 Z" fill="#c7654e" class="connection-start-arrow" stroke-width="2" stroke="#c7654e"></path></g><g id="line_c59c4d67-cd33-474f-ab2a-f10d92d07aab" class="connection-svg"><path d="M 444.48 -84.5 C 253.5 -151.16668701171875  399.5 -336.16668701171875  455.02 -380.5" fill="none" stroke-linejoin="round" stroke-opacity="0" class="connection-line-bg" stroke-width="6" stroke="#c7654e" style="pointer-events: null"></path><path d="M 444.48 -84.5 C 253.5 -151.16668701171875  399.5 -336.16668701171875  455.02 -380.5" fill="none" stroke-linejoin="round" class="connection-line" stroke-dasharray="10,5" stroke-width="2" stroke="#c7654e" style="pointer-events: null"></path><path d="M445.6485846614308,-379.41529978702414 L455.02,-380.5 L451.88843616667265,-371.6009378045888 L455.02,-380.5" fill="#c7654e" class="connection-end-arrow" stroke-width="2" stroke="#c7654e"></path><path d="M444.48 -84.5 Z" fill="#c7654e" class="connection-start-arrow" stroke-width="2" stroke="#c7654e"></path></g></g><g class="po-mind-node-container"><g data-renderindex="0" class="po-mind-topic" id="topic-root" transform="matrix(1,0,0,1,-201,-48.5)" opacity="1"><path d="M10 0 L392 0 C392 0 402 0 402 10 L402 87 C402 87 402 97 392 97       L10 97 C10 97 0 97 0 87 L0 10 C0 10 0 0 10 0Z" class="po-mind-topic-shape-fill" transform="matrix(1,0,0,1,0,0)" fill="#c7654e"></path><path d="M10 0 L392 0 C392 0 402 0 402 10 L402 87 C402 87 402 97 392 97       L10 97 C10 97 0 97 0 87 L0 10 C0 10 0 0 10 0Z" class="po-mind-topic-shape" transform="matrix(1,0,0,1,0,0)" fill="none" stroke-linecap="round" stroke-width="0" stroke="#c7654e"></path><g transform="matrix(1,0,0,1,28,14)"><g data-width="346" data-height="69" data-offsetx="0" transform="matrix(1,0,0,1,0,0)"><g><text text-anchor="middle" align="top" anchor="middle" font-size="30px" font-weight="bold" fill="rgb(251, 252, 251)" style="font-size: 30px;font-weight: bold;text-align: center;max-width: 900px;overflow-wrap: break-word;word-break: break-word;text-size-adjust: 100%;color: rgb(251, 252, 251);"><tspan x="174" y="30.000000000000004"><tspan dx="0">Al for offensive security</tspan></tspan><tspan x="174" y="69.9"><tspan dx="0">(V2026.06.07)</tspan></tspan></text></g></g></g></g><g data-renderindex="1" class="po-mind-topic" id="topic-20625f7c-9412-42a1-a6bb-93eba991a2ad" transform="matrix(1,0,0,1,265,-224)" opacity="1"><path d="M8 0 L119.8 0 C119.8 0 127.8 0 127.8 8 L127.8 29 C127.8 29 127.8 37 119.8 37       L8 37 C8 37 0 37 0 29 L0 8 C0 8 0 0 8 0Z" class="po-mind-topic-shape-fill" transform="matrix(1,0,0,1,0,0)" fill="#eed484"></path><path d="M8 0 L119.8 0 C119.8 0 127.8 0 127.8 8 L127.8 29 C127.8 29 127.8 37 119.8 37       L8 37 C8 37 0 37 0 29 L0 8 C0 8 0 0 8 0Z" class="po-mind-topic-shape" transform="matrix(1,0,0,1,0,0)" fill="none" stroke-linecap="round" stroke-width="0" stroke="#eed484"></path><g transform="matrix(1,0,0,1,16,8)"><g data-width="95.8" data-height="21" data-offsetx="0" transform="matrix(1,0,0,1,0,0)"><g><text text-anchor="start" align="top" anchor="start" font-size="18px" font-weight="" fill="rgb(3, 18, 3)" style="font-size: 18px;max-width: 900px;overflow-wrap: break-word;word-break: break-word;text-size-adjust: 100%;color: rgb(3, 18, 3);"><tspan x="0" y="18"><tspan dx="0">StrikeAgent</tspan></tspan></text></g></g></g></g><g data-renderindex="2" class="po-mind-topic" id="topic-07c9f4f4-f560-4a74-a1d3-9b11ca4188ef" transform="matrix(1,0,0,1,416.8,-408.5)" opacity="1"><path d="M6 0 L121.4 0 C121.4 0 127.4 0 127.4 6 L127.4 22 C127.4 22 127.4 28 121.4 28       L6 28 C6 28 0 28 0 22 L0 6 C0 6 0 0 6 0Z" class="po-mind-topic-shape-fill" transform="matrix(1,0,0,1,0,0)" fill="#fcf8eb"></path><path d="M6 0 L121.4 0 C121.4 0 127.4 0 127.4 6 L127.4 22 C127.4 22 127.4 28 121.4 28       L6 28 C6 28 0 28 0 22 L0 6 C0 6 0 0 6 0Z" class="po-mind-topic-shape" transform="matrix(1,0,0,1,0,0)" fill="none" stroke-linecap="round" stroke-width="0" stroke="#eed484"></path><g transform="matrix(1,0,0,1,5,6)"><g data-width="117.4" data-height="16" data-offsetx="0" transform="matrix(1,0,0,1,0,0)"><g><text text-anchor="start" align="top" anchor="start" font-size="14px" font-weight="" fill="rgb(3, 17, 3)" style="font-size: 14px;max-width: 896px;overflow-wrap: break-word;word-break: break-word;text-size-adjust: 100%;color: rgb(3, 17, 3);"><tspan x="0" y="14.000000000000002"><tspan dx="0">StrikeAgent-Coder</tspan></tspan></text></g></g></g></g><g data-renderindex="3" class="po-mind-topic" id="topic-b0941f02-9360-4b5d-b8fe-6988b0baadd0" transform="matrix(1,0,0,1,416.8,-273.5)" opacity="1"><path d="M6 0 L136.4 0 C136.4 0 142.4 0 142.4 6 L142.4 22 C142.4 22 142.4 28 136.4 28       L6 28 C6 28 0 28 0 22 L0 6 C0 6 0 0 6 0Z" class="po-mind-topic-shape-fill" transform="matrix(1,0,0,1,0,0)" fill="#fcf8eb"></path><path d="M6 0 L136.4 0 C136.4 0 142.4 0 142.4 6 L142.4 22 C142.4 22 142.4 28 136.4 28       L6 28 C6 28 0 28 0 22 L0 6 C0 6 0 0 6 0Z" class="po-mind-topic-shape" transform="matrix(1,0,0,1,0,0)" fill="none" stroke-linecap="round" stroke-width="0" stroke="#eed484"></path><g transform="matrix(1,0,0,1,5,6)"><g data-width="132.4" data-height="16" data-offsetx="0" transform="matrix(1,0,0,1,0,0)"><g><text text-anchor="start" align="top" anchor="start" font-size="14px" font-weight="" fill="rgb(3, 17, 3)" style="font-size: 14px;max-width: 896px;overflow-wrap: break-word;word-break: break-word;text-size-adjust: 100%;color: rgb(3, 17, 3);"><tspan x="0" y="14.000000000000002"><tspan dx="0">StrikeAgent-AtkBrain</tspan></tspan></text></g></g></g></g><g data-renderindex="4" class="po-mind-topic" id="topic-3851da67-892c-4d60-a935-c7d76879c076" transform="matrix(1,0,0,1,583.2,-354.5)" opacity="1"><path d="M6 0 L127.4 0 C127.4 0 133.4 0 133.4 6 L133.4 22 C133.4 22 133.4 28 127.4 28       L6 28 C6 28 0 28 0 22 L0 6 C0 6 0 0 6 0Z" class="po-mind-topic-shape-fill" transform="matrix(1,0,0,1,0,0)" fill="#fcf8eb"></path><path d="M6 0 L127.4 0 C127.4 0 133.4 0 133.4 6 L133.4 22 C133.4 22 133.4 28 127.4 28       L6 28 C6 28 0 28 0 22 L0 6 C0 6 0 0 6 0Z" class="po-mind-topic-shape" transform="matrix(1,0,0,1,0,0)" fill="none" stroke-linecap="round" stroke-width="0" stroke="#eed484"></path><g transform="matrix(1,0,0,1,5,6)"><g data-width="123.4" data-height="16" data-offsetx="0" transform="matrix(1,0,0,1,0,0)"><g><text text-anchor="start" align="top" anchor="start" font-size="14px" font-weight="" fill="rgb(3, 17, 3)" style="font-size: 14px;max-width: 896px;overflow-wrap: break-word;word-break: break-word;text-size-adjust: 100%;color: rgb(3, 17, 3);"><tspan x="0" y="14.000000000000002"><tspan dx="0">StrikeAgent-RedInit</tspan></tspan></text></g></g></g></g><g data-renderindex="5" class="po-mind-topic" id="topic-05d34795-0806-4f64-ac10-47457818bd72" transform="matrix(1,0,0,1,583.2,-300.5)" opacity="1"><path d="M6 0 L138.4 0 C138.4 0 144.4 0 144.4 6 L144.4 22 C144.4 22 144.4 28 138.4 28       L6 28 C6 28 0 28 0 22 L0 6 C0 6 0 0 6 0Z" class="po-mind-topic-shape-fill" transform="matrix(1,0,0,1,0,0)" fill="#fcf8eb"></path><path d="M6 0 L138.4 0 C138.4 0 144.4 0 144.4 6 L144.4 22 C144.4 22 144.4 28 138.4 28       L6 28 C6 28 0 28 0 22 L0 6 C0 6 0 0 6 0Z" class="po-mind-topic-shape" transform="matrix(1,0,0,1,0,0)" fill="none" stroke-linecap="round" stroke-width="0" stroke="#eed484"></path><g transform="matrix(1,0,0,1,5,6)"><g data-width="134.4" data-height="16" data-offsetx="0" transform="matrix(1,0,0,1,0,0)"><g><text text-anchor="start" align="top" anchor="start" font-size="14px" font-weight="" fill="rgb(3, 17, 3)" style="font-size: 14px;max-width: 896px;overflow-wrap: break-word;word-break: break-word;text-size-adjust: 100%;color: rgb(3, 17, 3);"><tspan x="0" y="14.000000000000002"><tspan dx="0">StrikeAgent-VulnFind</tspan></tspan></text></g></g></g></g><g data-renderindex="6" class="po-mind-topic" id="topic-0e475334-603e-4f05-9c06-f4dd31a779ac" transform="matrix(1,0,0,1,583.2,-246.5)" opacity="1"><path d="M6 0 L110.4 0 C110.4 0 116.4 0 116.4 6 L116.4 22 C116.4 22 116.4 28 110.4 28       L6 28 C6 28 0 28 0 22 L0 6 C0 6 0 0 6 0Z" class="po-mind-topic-shape-fill" transform="matrix(1,0,0,1,0,0)" fill="#fcf8eb"></path><path d="M6 0 L110.4 0 C110.4 0 116.4 0 116.4 6 L116.4 22 C116.4 22 116.4 28 110.4 28       L6 28 C6 28 0 28 0 22 L0 6 C0 6 0 0 6 0Z" class="po-mind-topic-shape" transform="matrix(1,0,0,1,0,0)" fill="none" stroke-linecap="round" stroke-width="0" stroke="#eed484"></path><g transform="matrix(1,0,0,1,5,6)"><g data-width="106.4" data-height="16" data-offsetx="0" transform="matrix(1,0,0,1,0,0)"><g><text text-anchor="start" align="top" anchor="start" font-size="14px" font-weight="" fill="rgb(3, 17, 3)" style="font-size: 14px;max-width: 896px;overflow-wrap: break-word;word-break: break-word;text-size-adjust: 100%;color: rgb(3, 17, 3);"><tspan x="0" y="14.000000000000002"><tspan dx="0">StrikeAgent-CTF</tspan></tspan></text></g></g></g></g><g data-renderindex="7" class="po-mind-topic" id="topic-04566b59-454f-4446-b302-f1b4ccc64514" transform="matrix(1,0,0,1,583.2,-192.5)" opacity="1"><path d="M6 0 L102.4 0 C102.4 0 108.4 0 108.4 6 L108.4 22 C108.4 22 108.4 28 102.4 28       L6 28 C6 28 0 28 0 22 L0 6 C0 6 0 0 6 0Z" class="po-mind-topic-shape-fill" transform="matrix(1,0,0,1,0,0)" fill="#fcf8eb"></path><path d="M6 0 L102.4 0 C102.4 0 108.4 0 108.4 6 L108.4 22 C108.4 22 108.4 28 102.4 28       L6 28 C6 28 0 28 0 22 L0 6 C0 6 0 0 6 0Z" class="po-mind-topic-shape" transform="matrix(1,0,0,1,0,0)" fill="none" stroke-linecap="round" stroke-width="0" stroke="#eed484"></path><g transform="matrix(1,0,0,1,5,6)"><g data-width="98.4" data-height="16" data-offsetx="0" transform="matrix(1,0,0,1,0,0)"><g><text text-anchor="start" align="top" anchor="start" font-size="14px" font-weight="" fill="rgb(3, 17, 3)" style="font-size: 14px;max-width: 896px;overflow-wrap: break-word;word-break: break-word;text-size-adjust: 100%;color: rgb(3, 17, 3);"><tspan x="0" y="14.000000000000002"><tspan dx="0">StrikeAgent-PE</tspan></tspan></text></g></g></g></g><g data-renderindex="8" class="po-mind-topic" id="summary-3f81484f-f411-4b89-8a58-78d39ebb591c" transform="matrix(1,0,0,1,763.6,-275.5)" opacity="1"><path d="M6 0 L62.400000000000006 0 C62.400000000000006 0 68.4 0 68.4 6 L68.4 26 C68.4 26 68.4 32 62.400000000000006 32       L6 32 C6 32 0 32 0 26 L0 6 C0 6 0 0 6 0Z" class="po-mind-topic-shape-fill" transform="matrix(1,0,0,1,0,0)" fill="#eed484"></path><path d="M6 0 L62.400000000000006 0 C62.400000000000006 0 68.4 0 68.4 6 L68.4 26 C68.4 26 68.4 32 62.400000000000006 32       L6 32 C6 32 0 32 0 26 L0 6 C0 6 0 0 6 0Z" class="po-mind-topic-shape" transform="matrix(1,0,0,1,0,0)" fill="none" stroke-linecap="round" stroke-width="0" stroke="#eed484"></path><g transform="matrix(1,0,0,1,16,8)"><g data-width="36.4" data-height="16" data-offsetx="0" transform="matrix(1,0,0,1,0,0)"><g><text text-anchor="start" align="top" anchor="start" font-size="14px" font-weight="" fill="rgb(3, 18, 3)" style="font-size: 14px;max-width: 896px;overflow-wrap: break-word;word-break: break-word;text-size-adjust: 100%;color: rgb(3, 18, 3);"><tspan x="0" y="14.000000000000002"><tspan dx="0">result</tspan></tspan></text></g></g></g></g><g data-renderindex="9" class="po-mind-topic" id="topic-0a807daf-18e3-4d09-a73b-8aa7c3d7903f" transform="matrix(1,0,0,1,416.8,-138.5)" opacity="1"><path d="M6 0 L113.4 0 C113.4 0 119.4 0 119.4 6 L119.4 22 C119.4 22 119.4 28 113.4 28       L6 28 C6 28 0 28 0 22 L0 6 C0 6 0 0 6 0Z" class="po-mind-topic-shape-fill" transform="matrix(1,0,0,1,0,0)" fill="#fcf8eb"></path><path d="M6 0 L113.4 0 C113.4 0 119.4 0 119.4 6 L119.4 22 C119.4 22 119.4 28 113.4 28       L6 28 C6 28 0 28 0 22 L0 6 C0 6 0 0 6 0Z" class="po-mind-topic-shape" transform="matrix(1,0,0,1,0,0)" fill="none" stroke-linecap="round" stroke-width="0" stroke="#eed484"></path><g transform="matrix(1,0,0,1,5,6)"><g data-width="109.4" data-height="16" data-offsetx="0" transform="matrix(1,0,0,1,0,0)"><g><text text-anchor="start" align="top" anchor="start" font-size="14px" font-weight="" fill="rgb(3, 17, 3)" style="font-size: 14px;max-width: 896px;overflow-wrap: break-word;word-break: break-word;text-size-adjust: 100%;color: rgb(3, 17, 3);"><tspan x="0" y="14.000000000000002"><tspan dx="0">StrikeAgent-MAP</tspan></tspan></text></g></g></g></g><g data-renderindex="10" class="po-mind-topic" id="topic-74064f49-c87b-460e-9b56-2218d0f65f35" transform="matrix(1,0,0,1,416.8,-84.5)" opacity="1"><path d="M6 0 L132.4 0 C132.4 0 138.4 0 138.4 6 L138.4 22 C138.4 22 138.4 28 132.4 28       L6 28 C6 28 0 28 0 22 L0 6 C0 6 0 0 6 0Z" class="po-mind-topic-shape-fill" transform="matrix(1,0,0,1,0,0)" fill="#fcf8eb"></path><path d="M6 0 L132.4 0 C132.4 0 138.4 0 138.4 6 L138.4 22 C138.4 22 138.4 28 132.4 28       L6 28 C6 28 0 28 0 22 L0 6 C0 6 0 0 6 0Z" class="po-mind-topic-shape" transform="matrix(1,0,0,1,0,0)" fill="none" stroke-linecap="round" stroke-width="0" stroke="#eed484"></path><g transform="matrix(1,0,0,1,5,6)"><g data-width="128.4" data-height="16" data-offsetx="0" transform="matrix(1,0,0,1,0,0)"><g><text text-anchor="start" align="top" anchor="start" font-size="14px" font-weight="" fill="rgb(3, 17, 3)" style="font-size: 14px;max-width: 896px;overflow-wrap: break-word;word-break: break-word;text-size-adjust: 100%;color: rgb(3, 17, 3);"><tspan x="0" y="14.000000000000002"><tspan dx="0">StrikeAgent-RAGKB</tspan></tspan></text></g></g></g></g><g data-renderindex="11" class="po-mind-topic" id="topic-3c68ff98-6ed6-4759-a374-621a10d34a9f" transform="matrix(1,0,0,1,416.8,-30.5)" opacity="1"><path d="M6 0 L122.4 0 C122.4 0 128.4 0 128.4 6 L128.4 22 C128.4 22 128.4 28 122.4 28       L6 28 C6 28 0 28 0 22 L0 6 C0 6 0 0 6 0Z" class="po-mind-topic-shape-fill" transform="matrix(1,0,0,1,0,0)" fill="#fcf8eb"></path><path d="M6 0 L122.4 0 C122.4 0 128.4 0 128.4 6 L128.4 22 C128.4 22 128.4 28 122.4 28       L6 28 C6 28 0 28 0 22 L0 6 C0 6 0 0 6 0Z" class="po-mind-topic-shape" transform="matrix(1,0,0,1,0,0)" fill="none" stroke-linecap="round" stroke-width="0" stroke="#eed484"></path><g transform="matrix(1,0,0,1,5,6)"><g data-width="118.4" data-height="16" data-offsetx="0" transform="matrix(1,0,0,1,0,0)"><g><text text-anchor="start" align="top" anchor="start" font-size="14px" font-weight="" fill="rgb(3, 17, 3)" style="font-size: 14px;max-width: 896px;overflow-wrap: break-word;word-break: break-word;text-size-adjust: 100%;color: rgb(3, 17, 3);"><tspan x="0" y="14.000000000000002"><tspan dx="0">StrikeAgent-VulDB</tspan></tspan></text></g></g></g></g><g data-renderindex="12" class="po-mind-topic" id="summary-2bc0f66f-b611-4b13-9c8c-8e766106e3e5" transform="matrix(1,0,0,1,591.2,-86.5)" opacity="1"><path d="M6 0 L72.4 0 C72.4 0 78.4 0 78.4 6 L78.4 26 C78.4 26 78.4 32 72.4 32       L6 32 C6 32 0 32 0 26 L0 6 C0 6 0 0 6 0Z" class="po-mind-topic-shape-fill" transform="matrix(1,0,0,1,0,0)" fill="#eed484"></path><path d="M6 0 L72.4 0 C72.4 0 78.4 0 78.4 6 L78.4 26 C78.4 26 78.4 32 72.4 32       L6 32 C6 32 0 32 0 26 L0 6 C0 6 0 0 6 0Z" class="po-mind-topic-shape" transform="matrix(1,0,0,1,0,0)" fill="none" stroke-linecap="round" stroke-width="0" stroke="#eed484"></path><g transform="matrix(1,0,0,1,16,8)"><g data-width="46.4" data-height="16" data-offsetx="0" transform="matrix(1,0,0,1,0,0)"><g><text text-anchor="start" align="top" anchor="start" font-size="14px" font-weight="" fill="rgb(3, 18, 3)" style="font-size: 14px;max-width: 896px;overflow-wrap: break-word;word-break: break-word;text-size-adjust: 100%;color: rgb(3, 18, 3);"><tspan x="0" y="14.000000000000002"><tspan dx="0">Enable</tspan></tspan></text></g></g></g></g><g data-renderindex="13" class="po-mind-topic" id="topic-c72b17b8-c55c-4a90-a296-051bbaa2b717" transform="matrix(1,0,0,1,265,187)" opacity="1"><path d="M8 0 L109.8 0 C109.8 0 117.8 0 117.8 8 L117.8 29 C117.8 29 117.8 37 109.8 37       L8 37 C8 37 0 37 0 29 L0 8 C0 8 0 0 8 0Z" class="po-mind-topic-shape-fill" transform="matrix(1,0,0,1,0,0)" fill="#729b8d"></path><path d="M8 0 L109.8 0 C109.8 0 117.8 0 117.8 8 L117.8 29 C117.8 29 117.8 37 109.8 37       L8 37 C8 37 0 37 0 29 L0 8 C0 8 0 0 8 0Z" class="po-mind-topic-shape" transform="matrix(1,0,0,1,0,0)" fill="none" stroke-linecap="round" stroke-width="0" stroke="#729b8d"></path><g transform="matrix(1,0,0,1,16,8)"><g data-width="85.8" data-height="21" data-offsetx="0" transform="matrix(1,0,0,1,0,0)"><g><text text-anchor="start" align="top" anchor="start" font-size="18px" font-weight="" fill="rgb(253, 253, 253)" style="font-size: 18px;max-width: 900px;overflow-wrap: break-word;word-break: break-word;text-size-adjust: 100%;color: rgb(253, 253, 253);"><tspan x="0" y="18"><tspan dx="0">StrikeGPT</tspan></tspan></text></g></g></g></g><g data-renderindex="14" class="po-mind-topic" id="topic-a88f9311-40c3-4ec9-a114-4ef63925b4ea" transform="matrix(1,0,0,1,406.8,83.5)" opacity="1"><path d="M6 0 L218.4 0 C218.4 0 224.4 0 224.4 6 L224.4 22 C224.4 22 224.4 28 218.4 28       L6 28 C6 28 0 28 0 22 L0 6 C0 6 0 0 6 0Z" class="po-mind-topic-shape-fill" transform="matrix(1,0,0,1,0,0)" fill="#e8efed"></path><path d="M6 0 L218.4 0 C218.4 0 224.4 0 224.4 6 L224.4 22 C224.4 22 224.4 28 218.4 28       L6 28 C6 28 0 28 0 22 L0 6 C0 6 0 0 6 0Z" class="po-mind-topic-shape" transform="matrix(1,0,0,1,0,0)" fill="none" stroke-linecap="round" stroke-width="0" stroke="#729b8d"></path><g transform="matrix(1,0,0,1,5,6)"><g data-width="214.4" data-height="16" data-offsetx="0" transform="matrix(1,0,0,1,0,0)"><g><text text-anchor="start" align="top" anchor="start" font-size="14px" font-weight="" fill="rgb(14, 15, 14)" style="font-size: 14px;max-width: 896px;overflow-wrap: break-word;word-break: break-word;text-size-adjust: 100%;color: rgb(14, 15, 14);"><tspan x="0" y="14.000000000000002"><tspan dx="0">Zero Series(Trained from Scratch)</tspan></tspan></text></g></g></g></g><g data-renderindex="15" class="po-mind-topic" id="topic-da38f88d-4637-47da-b63f-9ad0a35d15c9" transform="matrix(1,0,0,1,655.2,29.5)" opacity="1"><path d="M6 0 L103.4 0 C103.4 0 109.4 0 109.4 6 L109.4 22 C109.4 22 109.4 28 103.4 28       L6 28 C6 28 0 28 0 22 L0 6 C0 6 0 0 6 0Z" class="po-mind-topic-shape-fill" transform="matrix(1,0,0,1,0,0)" fill="#e8efed"></path><path d="M6 0 L103.4 0 C103.4 0 109.4 0 109.4 6 L109.4 22 C109.4 22 109.4 28 103.4 28       L6 28 C6 28 0 28 0 22 L0 6 C0 6 0 0 6 0Z" class="po-mind-topic-shape" transform="matrix(1,0,0,1,0,0)" fill="none" stroke-linecap="round" stroke-width="0" stroke="#729b8d"></path><g transform="matrix(1,0,0,1,5,6)"><g data-width="99.4" data-height="16" data-offsetx="0" transform="matrix(1,0,0,1,0,0)"><g><text text-anchor="start" align="top" anchor="start" font-size="14px" font-weight="" fill="rgb(14, 15, 14)" style="font-size: 14px;max-width: 896px;overflow-wrap: break-word;word-break: break-word;text-size-adjust: 100%;color: rgb(14, 15, 14);"><tspan x="0" y="14.000000000000002"><tspan dx="0">StrikeGPT-Zero</tspan></tspan></text></g></g></g></g><g data-renderindex="16" class="po-mind-topic" id="topic-31803359-abff-4ce6-b767-043a9a0abaa5" transform="matrix(1,0,0,1,655.2,83.5)" opacity="1"><path d="M6 0 L126.4 0 C126.4 0 132.4 0 132.4 6 L132.4 22 C132.4 22 132.4 28 126.4 28       L6 28 C6 28 0 28 0 22 L0 6 C0 6 0 0 6 0Z" class="po-mind-topic-shape-fill" transform="matrix(1,0,0,1,0,0)" fill="#e8efed"></path><path d="M6 0 L126.4 0 C126.4 0 132.4 0 132.4 6 L132.4 22 C132.4 22 132.4 28 126.4 28       L6 28 C6 28 0 28 0 22 L0 6 C0 6 0 0 6 0Z" class="po-mind-topic-shape" transform="matrix(1,0,0,1,0,0)" fill="none" stroke-linecap="round" stroke-width="0" stroke="#729b8d"></path><g transform="matrix(1,0,0,1,5,6)"><g data-width="122.4" data-height="16" data-offsetx="0" transform="matrix(1,0,0,1,0,0)"><g><text text-anchor="start" align="top" anchor="start" font-size="14px" font-weight="" fill="rgb(14, 15, 14)" style="font-size: 14px;max-width: 896px;overflow-wrap: break-word;word-break: break-word;text-size-adjust: 100%;color: rgb(14, 15, 14);"><tspan x="0" y="14.000000000000002"><tspan dx="0">StrikeGPT-R1-Zero</tspan></tspan></text></g></g></g></g><g data-renderindex="17" class="po-mind-topic" id="topic-df3aeb77-6821-4fed-92dc-9ea069213acb" transform="matrix(1,0,0,1,655.2,137.5)"><path d="M6 0 L125.4 0 C125.4 0 131.4 0 131.4 6 L131.4 22 C131.4 22 131.4 28 125.4 28       L6 28 C6 28 0 28 0 22 L0 6 C0 6 0 0 6 0Z" class="po-mind-topic-shape-fill" transform="matrix(1,0,0,1,0,0)" fill="#e8efed"></path><path d="M6 0 L125.4 0 C125.4 0 131.4 0 131.4 6 L131.4 22 C131.4 22 131.4 28 125.4 28       L6 28 C6 28 0 28 0 22 L0 6 C0 6 0 0 6 0Z" class="po-mind-topic-shape" transform="matrix(1,0,0,1,0,0)" fill="none" stroke-linecap="round" stroke-width="0" stroke="#729b8d"></path><g transform="matrix(1,0,0,1,5,6)"><g data-width="121.4" data-height="16" data-offsetx="0" transform="matrix(1,0,0,1,0,0)"><g><text text-anchor="start" align="top" anchor="start" font-size="14px" font-weight="" fill="rgb(14, 15, 14)" style="font-size: 14px;max-width: 896px;overflow-wrap: break-word;word-break: break-word;text-size-adjust: 100%;color: rgb(14, 15, 14);"><tspan x="0" y="14.000000000000002"><tspan dx="0">StrikeGPT-VL-Zero</tspan></tspan></text></g></g></g></g><g data-renderindex="18" class="po-mind-topic" id="summary-48d0319a-997e-422d-9c89-f397c72d2b15" transform="matrix(1,0,0,1,823.6,81.5)" opacity="1"><path d="M6 0 L53.4 0 C53.4 0 59.4 0 59.4 6 L59.4 26 C59.4 26 59.4 32 53.4 32       L6 32 C6 32 0 32 0 26 L0 6 C0 6 0 0 6 0Z" class="po-mind-topic-shape-fill" transform="matrix(1,0,0,1,0,0)" fill="#729b8d"></path><path d="M6 0 L53.4 0 C53.4 0 59.4 0 59.4 6 L59.4 26 C59.4 26 59.4 32 53.4 32       L6 32 C6 32 0 32 0 26 L0 6 C0 6 0 0 6 0Z" class="po-mind-topic-shape" transform="matrix(1,0,0,1,0,0)" fill="none" stroke-linecap="round" stroke-width="0" stroke="#729b8d"></path><g transform="matrix(1,0,0,1,16,8)"><g data-width="27.4" data-height="16" data-offsetx="0" transform="matrix(1,0,0,1,0,0)"><g><text text-anchor="start" align="top" anchor="start" font-size="14px" font-weight="" fill="rgb(253, 253, 253)" style="font-size: 14px;max-width: 896px;overflow-wrap: break-word;word-break: break-word;text-size-adjust: 100%;color: rgb(253, 253, 253);"><tspan x="0" y="14.000000000000002"><tspan dx="0">≤1B</tspan></tspan></text></g></g></g></g><g data-renderindex="19" class="po-mind-topic" id="topic-797ec7dd-b693-4167-b565-c6b72a88bf8c" transform="matrix(1,0,0,1,406.8,299.5)" opacity="1"><path d="M6 0 L179.4 0 C179.4 0 185.4 0 185.4 6 L185.4 22 C185.4 22 185.4 28 179.4 28       L6 28 C6 28 0 28 0 22 L0 6 C0 6 0 0 6 0Z" class="po-mind-topic-shape-fill" transform="matrix(1,0,0,1,0,0)" fill="#e8efed"></path><path d="M6 0 L179.4 0 C179.4 0 185.4 0 185.4 6 L185.4 22 C185.4 22 185.4 28 179.4 28       L6 28 C6 28 0 28 0 22 L0 6 C0 6 0 0 6 0Z" class="po-mind-topic-shape" transform="matrix(1,0,0,1,0,0)" fill="none" stroke-linecap="round" stroke-width="0" stroke="#729b8d"></path><g transform="matrix(1,0,0,1,5,6)"><g data-width="175.4" data-height="16" data-offsetx="0" transform="matrix(1,0,0,1,0,0)"><g><text text-anchor="start" align="top" anchor="start" font-size="14px" font-weight="" fill="rgb(14, 15, 14)" style="font-size: 14px;max-width: 896px;overflow-wrap: break-word;word-break: break-word;text-size-adjust: 100%;color: rgb(14, 15, 14);"><tspan x="0" y="14.000000000000002"><tspan dx="0">Non-Zero Series(Retrained)</tspan></tspan></text></g></g></g></g><g data-renderindex="20" class="po-mind-topic" id="topic-0d35c36e-a94f-4677-b03e-c8655dd918ab" transform="matrix(1,0,0,1,616.2,191.5)" opacity="1"><path d="M6 0 L71.4 0 C71.4 0 77.4 0 77.4 6 L77.4 22 C77.4 22 77.4 28 71.4 28       L6 28 C6 28 0 28 0 22 L0 6 C0 6 0 0 6 0Z" class="po-mind-topic-shape-fill" transform="matrix(1,0,0,1,0,0)" fill="#e8efed"></path><path d="M6 0 L71.4 0 C71.4 0 77.4 0 77.4 6 L77.4 22 C77.4 22 77.4 28 71.4 28       L6 28 C6 28 0 28 0 22 L0 6 C0 6 0 0 6 0Z" class="po-mind-topic-shape" transform="matrix(1,0,0,1,0,0)" fill="none" stroke-linecap="round" stroke-width="0" stroke="#729b8d"></path><g transform="matrix(1,0,0,1,5,6)"><g data-width="67.4" data-height="16" data-offsetx="0" transform="matrix(1,0,0,1,0,0)"><g><text text-anchor="start" align="top" anchor="start" font-size="14px" font-weight="" fill="rgb(14, 15, 14)" style="font-size: 14px;max-width: 896px;overflow-wrap: break-word;word-break: break-word;text-size-adjust: 100%;color: rgb(14, 15, 14);"><tspan x="0" y="14.000000000000002"><tspan dx="0">StrikeGPT</tspan></tspan></text></g></g></g></g><g data-renderindex="21" class="po-mind-topic" id="topic-5281c95e-c064-46d0-8728-d7b74f089649" transform="matrix(1,0,0,1,616.2,245.5)" opacity="1"><path d="M6 0 L92.4 0 C92.4 0 98.4 0 98.4 6 L98.4 22 C98.4 22 98.4 28 92.4 28       L6 28 C6 28 0 28 0 22 L0 6 C0 6 0 0 6 0Z" class="po-mind-topic-shape-fill" transform="matrix(1,0,0,1,0,0)" fill="#e8efed"></path><path d="M6 0 L92.4 0 C92.4 0 98.4 0 98.4 6 L98.4 22 C98.4 22 98.4 28 92.4 28       L6 28 C6 28 0 28 0 22 L0 6 C0 6 0 0 6 0Z" class="po-mind-topic-shape" transform="matrix(1,0,0,1,0,0)" fill="none" stroke-linecap="round" stroke-width="0" stroke="#729b8d"></path><g transform="matrix(1,0,0,1,5,6)"><g data-width="88.4" data-height="16" data-offsetx="0" transform="matrix(1,0,0,1,0,0)"><g><text text-anchor="start" align="top" anchor="start" font-size="14px" font-weight="" fill="rgb(14, 15, 14)" style="font-size: 14px;max-width: 896px;overflow-wrap: break-word;word-break: break-word;text-size-adjust: 100%;color: rgb(14, 15, 14);"><tspan x="0" y="14.000000000000002"><tspan dx="0">StrikeGPT-R1</tspan></tspan></text></g></g></g></g><g data-renderindex="22" class="po-mind-topic" id="topic-73a3f608-ac6a-4201-8be4-95979b654ffc" transform="matrix(1,0,0,1,616.2,299.5)" opacity="1"><path d="M6 0 L92.4 0 C92.4 0 98.4 0 98.4 6 L98.4 22 C98.4 22 98.4 28 92.4 28       L6 28 C6 28 0 28 0 22 L0 6 C0 6 0 0 6 0Z" class="po-mind-topic-shape-fill" transform="matrix(1,0,0,1,0,0)" fill="#e8efed"></path><path d="M6 0 L92.4 0 C92.4 0 98.4 0 98.4 6 L98.4 22 C98.4 22 98.4 28 92.4 28       L6 28 C6 28 0 28 0 22 L0 6 C0 6 0 0 6 0Z" class="po-mind-topic-shape" transform="matrix(1,0,0,1,0,0)" fill="none" stroke-linecap="round" stroke-width="0" stroke="#729b8d"></path><g transform="matrix(1,0,0,1,5,6)"><g data-width="88.4" data-height="16" data-offsetx="0" transform="matrix(1,0,0,1,0,0)"><g><text text-anchor="start" align="top" anchor="start" font-size="14px" font-weight="" fill="rgb(14, 15, 14)" style="font-size: 14px;max-width: 896px;overflow-wrap: break-word;word-break: break-word;text-size-adjust: 100%;color: rgb(14, 15, 14);"><tspan x="0" y="14.000000000000002"><tspan dx="0">StrikeGPT-VL</tspan></tspan></text></g></g></g></g><g data-renderindex="23" class="po-mind-topic" id="topic-beadcb4a-b3a1-434e-99ee-d548b3136d67" transform="matrix(1,0,0,1,616.2,353.5)" opacity="1"><path d="M6 0 L114.4 0 C114.4 0 120.4 0 120.4 6 L120.4 22 C120.4 22 120.4 28 114.4 28       L6 28 C6 28 0 28 0 22 L0 6 C0 6 0 0 6 0Z" class="po-mind-topic-shape-fill" transform="matrix(1,0,0,1,0,0)" fill="#e8efed"></path><path d="M6 0 L114.4 0 C114.4 0 120.4 0 120.4 6 L120.4 22 C120.4 22 120.4 28 114.4 28       L6 28 C6 28 0 28 0 22 L0 6 C0 6 0 0 6 0Z" class="po-mind-topic-shape" transform="matrix(1,0,0,1,0,0)" fill="none" stroke-linecap="round" stroke-width="0" stroke="#729b8d"></path><g transform="matrix(1,0,0,1,5,6)"><g data-width="110.4" data-height="16" data-offsetx="0" transform="matrix(1,0,0,1,0,0)"><g><text text-anchor="start" align="top" anchor="start" font-size="14px" font-weight="" fill="rgb(14, 15, 14)" style="font-size: 14px;max-width: 896px;overflow-wrap: break-word;word-break: break-word;text-size-adjust: 100%;color: rgb(14, 15, 14);"><tspan x="0" y="14.000000000000002"><tspan dx="0">StrikeGPT-VL-R1</tspan></tspan></text></g></g></g></g><g data-renderindex="24" class="po-mind-topic" id="topic-aaacab17-1441-4df2-a497-33a5bc70c40f" transform="matrix(1,0,0,1,616.2,407.5)" opacity="1"><path d="M6 0 L113.4 0 C113.4 0 119.4 0 119.4 6 L119.4 22 C119.4 22 119.4 28 113.4 28       L6 28 C6 28 0 28 0 22 L0 6 C0 6 0 0 6 0Z" class="po-mind-topic-shape-fill" transform="matrix(1,0,0,1,0,0)" fill="#e8efed"></path><path d="M6 0 L113.4 0 C113.4 0 119.4 0 119.4 6 L119.4 22 C119.4 22 119.4 28 113.4 28       L6 28 C6 28 0 28 0 22 L0 6 C0 6 0 0 6 0Z" class="po-mind-topic-shape" transform="matrix(1,0,0,1,0,0)" fill="none" stroke-linecap="round" stroke-width="0" stroke="#729b8d"></path><g transform="matrix(1,0,0,1,5,6)"><g data-width="109.4" data-height="16" data-offsetx="0" transform="matrix(1,0,0,1,0,0)"><g><text text-anchor="start" align="top" anchor="start" font-size="14px" font-weight="" fill="rgb(14, 15, 14)" style="font-size: 14px;max-width: 896px;overflow-wrap: break-word;word-break: break-word;text-size-adjust: 100%;color: rgb(14, 15, 14);"><tspan x="0" y="14.000000000000002"><tspan dx="0">StrikeGPT-Coder</tspan></tspan></text></g></g></g></g><g data-renderindex="25" class="po-mind-topic" id="summary-a74961f3-8837-4aeb-a7c0-5efe5a2259a0" transform="matrix(1,0,0,1,772.6,297.5)" opacity="1"><path d="M6 0 L61.400000000000006 0 C61.400000000000006 0 67.4 0 67.4 6 L67.4 26 C67.4 26 67.4 32 61.400000000000006 32       L6 32 C6 32 0 32 0 26 L0 6 C0 6 0 0 6 0Z" class="po-mind-topic-shape-fill" transform="matrix(1,0,0,1,0,0)" fill="#729b8d"></path><path d="M6 0 L61.400000000000006 0 C61.400000000000006 0 67.4 0 67.4 6 L67.4 26 C67.4 26 67.4 32 61.400000000000006 32       L6 32 C6 32 0 32 0 26 L0 6 C0 6 0 0 6 0Z" class="po-mind-topic-shape" transform="matrix(1,0,0,1,0,0)" fill="none" stroke-linecap="round" stroke-width="0" stroke="#729b8d"></path><g transform="matrix(1,0,0,1,16,8)"><g data-width="35.4" data-height="16" data-offsetx="0" transform="matrix(1,0,0,1,0,0)"><g><text text-anchor="start" align="top" anchor="start" font-size="14px" font-weight="" fill="rgb(253, 253, 253)" style="font-size: 14px;max-width: 896px;overflow-wrap: break-word;word-break: break-word;text-size-adjust: 100%;color: rgb(253, 253, 253);"><tspan x="0" y="14.000000000000002"><tspan dx="0">≤40B</tspan></tspan></text></g></g></g></g></g><g class="po-mind-after-node-line-container"></g><g class="po-mind-associative-line-label-container"></g></g><g id="wpsexport-watermark"><defs><pattern patternUnits="userSpaceOnUse" id="wpspattern_mark_0" width="300" height="300"><text x="150" y="100" fill="#0000004d" font-size="18" transform="rotate(-45, 150, 150)" style="dominant-baseline: middle; text-anchor: middle;"></text></pattern></defs><rect fill="url(#wpspattern_mark_0)" x="0" y="0" width="1134" height="894" id="rect_mark_0" pointer-events="none"></rect></g><style>
    .connection-svg{
        outline: none;
        box-shadow: none;
        -webkit-tap-highlight-color: transparent;
    }
    .connection-line {
        cursor: pointer;
    }

    .connection-line-bg {
        cursor: pointer;
    }

    .node-add-btn,.table-add-btn {
        cursor: pointer;
    }

    .po-richtext-node-wrap ol,
    .area_box ol,
    .po-measureCustomNode ol {
        padding-left: 20px;
        margin: 0;
    }
    .po-richtext-node-wrap ol li,
    .area_box ol li,
    .po-measureCustomNode ol li {
        list-style: decimal;
    }
    .po-richtext-node-wrap ul,
    .area_box ul,
    .po-measureCustomNode ul {
        padding-left: calc(15px + 0.5em);
        list-style: none;
        margin: 0;
    }
    .po-richtext-node-wrap ul li,
    .area_box ul li,
    .po-measureCustomNode ul li {
        list-style: disc;
    }
    .po-richtext-node-wrap p,
    .po-richtext-node-wrap h1,
    .po-richtext-node-wrap h2,
    .po-richtext-node-wrap h3,
    .po-richtext-node-wrap h4,
    .po-richtext-node-wrap h5,
    .po-richtext-node-wrap h6,
    .area_box p,
    .area_box h1,
    .area_box h2,
    .area_box h3,
    .area_box h4,
    .area_box h5,
    .area_box h6,
    .po-measureCustomNode p,
    .po-measureCustomNode h1,
    .po-measureCustomNode h2,
    .po-measureCustomNode h3,
    .po-measureCustomNode h4,
    .po-measureCustomNode h5,
    .po-measureCustomNode h6 {
        margin: 0;
    }
    .po-safari-fixed {
        position: fixed;
    }
    .spacePressed {
        cursor: -webkit-grab !important;
        cursor: grab !important;
        &amp;.moveing {
            cursor: -webkit-grabbing !important;
            cursor: grabbing !important;
        }
        .po-mind-container {
            pointer-events: none;
        }
    }
</style></svg>