<?xml version="1.0" standalone="no"?><?xml-stylesheet type="text/css" href="https://wps.processon.com/themes/default/wps/mind/icons/icons.css" ?><!DOCTYPE svg PUBLIC "-//W3C//DTD SVG 1.1//EN" "http://www.w3.org/Graphics/SVG/1.1/DTD/svg11.dtd"><svg xmlns="http://www.w3.org/2000/svg" xmlns:xlink="http://www.w3.org/1999/xlink" version="1.1" width="1134" height="866" style="outline: none; display: block; background: none; top: 0px; left: 0px; font-family: &quot;PingFang SC&quot;, &quot;Apple System&quot;, &quot;SF Pro SC&quot;, &quot;SF Pro Display&quot;, &quot;Helvetica Neue&quot;, Arial, &quot;Hiragino Sans GB&quot;, STHeiti, &quot;Microsoft YaHei&quot;, &quot;Microsoft JhengHei&quot;, &quot;Source Han Sans SC&quot;, &quot;Noto Sans CJK SC&quot;, &quot;Source Han Sans CN&quot;, sans-serif; z-index: 1; font-size: 12px;" id="mind-svg-con"><defs></defs><g id="svgbackgroundid"><defs></defs><rect width="1134" height="866" fill="transparent"></rect></g><g id="export-watermark"><defs><pattern patternUnits="userSpaceOnUse" id="pattern_mark_0" width="300" height="300"><text x="150" y="100" fill="rgba(0,0,0,0.1)" font-size="18" transform="rotate(-45, 150, 150)" style="dominant-baseline: middle; text-anchor: middle;"></text></pattern></defs><rect fill="url(#pattern_mark_0)" x="0" y="0" width="1134" height="866" id="rect_mark_0" pointer-events="none"></rect></g><g class="po-mind-container" transform="matrix(1,0,0,1,226,420)"><g class="po-mind-cell-container"></g><g class="po-mind-line-container"><g stroke-dasharray="none" stroke-width="3" stroke="#eed484" fill="none" from="root" to="66a91a7f62e2" opacity="1"><path d="M 0 0 L 137 0 L 137 -191 C 137 -191 137 -199 145 -199 L 265 -199"></path></g><g stroke-dasharray="none" stroke-width="3" stroke="#729b8d" fill="none" from="root" to="a7c7647a9eb6" opacity="1"><path d="M 0 0 L 137 0 L 137 191 C 137 191 137 199 145 199 L 265 199"></path></g><g stroke-dasharray="none" stroke-width="2" stroke="#eed484" fill="none" from="66a91a7f62e2" to="4265054a-25b5-48af-8970-a3822520f97f" opacity="1"><path d="M 392.8 -199 L 404.8 -199 L 404.8 -375 C 404.8 -375 404.8 -381 410.8 -381 L 416.8 -381"></path></g><g stroke-dasharray="none" stroke-width="2" stroke="#eed484" fill="none" from="66a91a7f62e2" to="329d2c38-dece-433f-a493-95b0452afdee" opacity="1"><path d="M 392.8 -199 L 404.8 -199 L 404.8 -245 C 404.8 -245 404.8 -251 410.8 -251 L 416.8 -251"></path></g><g stroke-dasharray="none" stroke-width="2" stroke="#eed484" fill="none" from="66a91a7f62e2" to="2e8cd51f-2cc7-45a1-9fe7-6e6cb758c3c0" opacity="1"><path d="M 392.8 -199 L 404.8 -199 L 404.8 -127 C 404.8 -127 404.8 -121 410.8 -121 L 416.8 -121"></path></g><g stroke-dasharray="none" stroke-width="2" stroke="#eed484" fill="none" from="66a91a7f62e2" to="a0fc6bf3-0144-49bd-87a2-9588b671b1aa" opacity="1"><path d="M 392.8 -199 L 404.8 -199 L 404.8 -75 C 404.8 -75 404.8 -69 410.8 -69 L 416.8 -69"></path></g><g stroke-dasharray="none" stroke-width="2" stroke="#eed484" fill="none" from="66a91a7f62e2" to="ea10b1d4-48b4-4d6a-a0a9-3f4a2b0b4939" opacity="1"><path d="M 392.8 -199 L 404.8 -199 L 404.8 -23 C 404.8 -23 404.8 -17 410.8 -17 L 416.8 -17"></path></g><g stroke-dasharray="none" stroke-width="2" stroke="#eed484" fill="none" from="329d2c38-dece-433f-a493-95b0452afdee" to="d4f8cd8b-f3b3-4a3f-80b9-dd37e07ed831" opacity="1"><path d="M 559.2 -251 L 571.2 -251 L 571.2 -323 C 571.2 -323 571.2 -329 577.2 -329 L 583.2 -329"></path></g><g stroke-dasharray="none" stroke-width="2" stroke="#eed484" fill="none" from="329d2c38-dece-433f-a493-95b0452afdee" to="38eea7be-83b0-4973-9130-5f055f4ae48b" opacity="1"><path d="M 559.2 -251 L 571.2 -251 L 571.2 -271 C 571.2 -271 571.2 -277 577.2 -277 L 583.2 -277"></path></g><g stroke-dasharray="none" stroke-width="2" stroke="#eed484" fill="none" from="329d2c38-dece-433f-a493-95b0452afdee" to="cbf2ca74-bde3-48e5-b477-a9c1764af5a1" opacity="1"><path d="M 559.2 -251 L 571.2 -251 L 571.2 -231 C 571.2 -231 571.2 -225 577.2 -225 L 583.2 -225"></path></g><g stroke-dasharray="none" stroke-width="2" stroke="#eed484" fill="none" from="329d2c38-dece-433f-a493-95b0452afdee" to="f3946adb-73c5-4bee-8b53-b4667a6523f7" opacity="1"><path d="M 559.2 -251 L 571.2 -251 L 571.2 -179 C 571.2 -179 571.2 -173 577.2 -173 L 583.2 -173"></path></g><g stroke-dasharray="none" stroke-width="2" stroke="#729b8d" fill="none" from="a7c7647a9eb6" to="0995f5fc-3712-453a-a010-337ad5ee5e9b"><path d="M 382.8 199 L 394.8 199 L 394.8 101 C 394.8 101 394.8 95 400.8 95 L 406.8 95"></path></g><g stroke-dasharray="none" stroke-width="2" stroke="#729b8d" fill="none" from="a7c7647a9eb6" to="2d72db21-3fe4-4919-9f32-ce11302c19de"><path d="M 382.8 199 L 394.8 199 L 394.8 297 C 394.8 297 394.8 303 400.8 303 L 406.8 303"></path></g><g stroke-dasharray="none" stroke-width="2" stroke="#729b8d" fill="none" from="0995f5fc-3712-453a-a010-337ad5ee5e9b" to="4fb0344a-33d7-493b-8028-d417bd11e46b"><path d="M 631.2 95 L 643.2 95 L 643.2 49 C 643.2 49 643.2 43 649.2 43 L 655.2 43"></path></g><g stroke-dasharray="none" stroke-width="2" stroke="#729b8d" fill="none" from="0995f5fc-3712-453a-a010-337ad5ee5e9b" to="7013fc65-7fb5-4068-ac3d-59c660cd405a"><path d="M 631.2 95 L 643.2 95 L 643.2 95 C 643.2 95 643.2 95 643.2 95 L 655.2 95"></path></g><g stroke-dasharray="none" stroke-width="2" stroke="#729b8d" fill="none" from="0995f5fc-3712-453a-a010-337ad5ee5e9b" to="e8ada640-9846-47b1-bdf8-dc73fcf29a92"><path d="M 631.2 95 L 643.2 95 L 643.2 141 C 643.2 141 643.2 147 649.2 147 L 655.2 147"></path></g><g stroke-dasharray="none" stroke-width="2" stroke="#729b8d" fill="none" from="2d72db21-3fe4-4919-9f32-ce11302c19de" to="033a112f-4f46-4fc3-baf3-2e24d6861b4a"><path d="M 592.2 303 L 604.2 303 L 604.2 205 C 604.2 205 604.2 199 610.2 199 L 616.2 199"></path></g><g stroke-dasharray="none" stroke-width="2" stroke="#729b8d" fill="none" from="2d72db21-3fe4-4919-9f32-ce11302c19de" to="46ed0caf-1c70-4122-a589-a3b96162cdbf"><path d="M 592.2 303 L 604.2 303 L 604.2 257 C 604.2 257 604.2 251 610.2 251 L 616.2 251"></path></g><g stroke-dasharray="none" stroke-width="2" stroke="#729b8d" fill="none" from="2d72db21-3fe4-4919-9f32-ce11302c19de" to="6942951c-fde1-427c-b67d-21c32332dd43"><path d="M 592.2 303 L 604.2 303 L 604.2 303 C 604.2 303 604.2 303 604.2 303 L 616.2 303"></path></g><g stroke-dasharray="none" stroke-width="2" stroke="#729b8d" fill="none" from="2d72db21-3fe4-4919-9f32-ce11302c19de" to="a670cc93-a286-4115-a3cb-cfbbe71c41ac"><path d="M 592.2 303 L 604.2 303 L 604.2 349 C 604.2 349 604.2 355 610.2 355 L 616.2 355"></path></g><g stroke-dasharray="none" stroke-width="2" stroke="#729b8d" fill="none" from="2d72db21-3fe4-4919-9f32-ce11302c19de" to="09cfa7d7-ae83-481c-9ad4-b07d106041ea"><path d="M 592.2 303 L 604.2 303 L 604.2 401 C 604.2 401 604.2 407 610.2 407 L 616.2 407"></path></g></g><g class="po-mind-generalize-container"><g summary="0393d61b-0d2a-4f13-baa8-8f5fe8b7303b" class="summary-line" stroke-width="2" stroke="#c7654e" fill="none"><path d="M 563.2 -135L 565.2 -135C 569.2 -135 573.2 -131 573.2 -127L 573.2 -77C 573.2 -73 577.2 -69 583.2 -69M 563.2 -3L 565.2 -3C 569.2 -3 573.2 -7 573.2 -11L 573.2 -61C 573.2 -65 577.2 -69 583.2 -69"></path></g><g summary="bf52c6e0-5593-4175-b120-b77ecf7d33c6" class="summary-line" stroke-width="2" stroke="#c7654e" fill="none"><path d="M 795.6 29L 797.6 29C 801.6 29 805.6 33 805.6 37L 805.6 87C 805.6 91 809.6 95 815.6 95M 795.6 161L 797.6 161C 801.6 161 805.6 157 805.6 153L 805.6 103C 805.6 99 809.6 95 815.6 95"></path></g><g summary="0fb47715-1284-4f19-a5b2-46b25e3d5432" class="summary-line" stroke-width="2" stroke="#c7654e" fill="none"><path d="M 744.6 185L 746.6 185C 750.6 185 754.6 189 754.6 193L 754.6 295C 754.6 299 758.6 303 764.6 303M 744.6 421L 746.6 421C 750.6 421 754.6 417 754.6 413L 754.6 311C 754.6 307 758.6 303 764.6 303"></path></g><g summary="3b784b59-bf2d-43d5-99d2-d25a2292367b" class="summary-line" stroke-width="2" stroke="#c7654e" fill="none"><path d="M 735.6 -343L 737.6 -343C 741.6 -343 745.6 -339 745.6 -335L 745.6 -259C 745.6 -255 749.6 -251 755.6 -251M 735.6 -159L 737.6 -159C 741.6 -159 745.6 -163 745.6 -167L 745.6 -243C 745.6 -247 749.6 -251 755.6 -251"></path></g></g><g class="po-mind-associative-line-container"><g id="line_b368d442-a747-4904-84b9-adad9b9061d2" class="connection-svg"><path d="M 669.6 -69 C 697.5 -68.95835876464844  815 -115.20835876464844  797.8000000000001 -235" fill="none" stroke-linejoin="round" stroke-opacity="0" class="connection-line-bg" stroke-width="6" stroke="#c7654e" style="pointer-events: null"></path><path d="M 669.6 -69 C 697.5 -68.95835876464844  815 -115.20835876464844  797.8000000000001 -235" fill="none" stroke-linejoin="round" class="connection-line" stroke-dasharray="10,5" stroke-width="2" stroke="#c7654e" style="pointer-events: null"></path><path d="M793.9877571903021,-226.37058491206346 L797.8000000000001,-235 L803.8862442410866,-227.79183580668138 L797.8000000000001,-235" fill="#c7654e" class="connection-end-arrow" stroke-width="2" stroke="#c7654e"></path><path d="M669.6 -69 Z" fill="#c7654e" class="connection-start-arrow" stroke-width="2" stroke="#c7654e"></path></g><g id="line_1af98624-364b-4bea-9752-2cce33fe12e2" class="connection-svg"><path d="M 430.64 -83 C 376.25 -95.20835876464844  310 -201.45835876464844  467.76 -367" fill="none" stroke-linejoin="round" stroke-opacity="0" class="connection-line-bg" stroke-width="6" stroke="#c7654e" style="pointer-events: null"></path><path d="M 430.64 -83 C 376.25 -95.20835876464844  310 -201.45835876464844  467.76 -367" fill="none" stroke-linejoin="round" class="connection-line" stroke-dasharray="10,5" stroke-width="2" stroke="#c7654e" style="pointer-events: null"></path><path d="M458.62131729763394,-364.65810366039074 L467.76,-367 L465.8604840649041,-357.759229511977 L467.76,-367" fill="#c7654e" class="connection-end-arrow" stroke-width="2" stroke="#c7654e"></path><path d="M430.64 -83 Z" fill="#c7654e" class="connection-start-arrow" stroke-width="2" stroke="#c7654e"></path></g></g><g class="po-mind-node-container"><g data-renderindex="0" class="po-mind-topic" id="topic-root" transform="matrix(1,0,0,1,-201,-31.5)" opacity="1"><path d="M10 0 L392 0 C392 0 402 0 402 10 L402 53 C402 53 402 63 392 63       L10 63 C10 63 0 63 0 53 L0 10 C0 10 0 0 10 0Z" class="po-mind-topic-shape-fill" transform="matrix(1,0,0,1,0,0)" fill="#c7654e"></path><path d="M10 0 L392 0 C392 0 402 0 402 10 L402 53 C402 53 402 63 392 63       L10 63 C10 63 0 63 0 53 L0 10 C0 10 0 0 10 0Z" class="po-mind-topic-shape" transform="matrix(1,0,0,1,0,0)" fill="none" stroke-linecap="round" stroke-width="0" stroke="#c7654e"></path><g transform="matrix(1,0,0,1,28,14)"><g data-width="346" data-height="35" data-offsetx="0" transform="matrix(1,0,0,1,0,0)"><g><text text-anchor="start" align="top" anchor="start" font-size="30px" font-weight="bold" fill="rgb(251, 252, 251)" style="font-size: 30px;font-weight: bold;max-width: 900px;overflow-wrap: break-word;word-break: break-word;text-size-adjust: 100%;color: rgb(251, 252, 251);"><tspan x="0" y="30.000000000000004"><tspan dx="0">Al for offensive security</tspan></tspan></text></g></g></g></g><g data-renderindex="1" class="po-mind-topic" id="topic-66a91a7f62e2" transform="matrix(1,0,0,1,265,-217.5)" opacity="1"><path d="M8 0 L119.8 0 C119.8 0 127.8 0 127.8 8 L127.8 29 C127.8 29 127.8 37 119.8 37       L8 37 C8 37 0 37 0 29 L0 8 C0 8 0 0 8 0Z" class="po-mind-topic-shape-fill" transform="matrix(1,0,0,1,0,0)" fill="#eed484"></path><path d="M8 0 L119.8 0 C119.8 0 127.8 0 127.8 8 L127.8 29 C127.8 29 127.8 37 119.8 37       L8 37 C8 37 0 37 0 29 L0 8 C0 8 0 0 8 0Z" class="po-mind-topic-shape" transform="matrix(1,0,0,1,0,0)" fill="none" stroke-linecap="round" stroke-width="0" stroke="#eed484"></path><g transform="matrix(1,0,0,1,16,8)"><g data-width="95.8" data-height="21" data-offsetx="0" transform="matrix(1,0,0,1,0,0)"><g><text text-anchor="start" align="top" anchor="start" font-size="18px" font-weight="" fill="rgb(3, 18, 3)" style="font-size: 18px;max-width: 900px;overflow-wrap: break-word;word-break: break-word;text-size-adjust: 100%;color: rgb(3, 18, 3);"><tspan x="0" y="18"><tspan dx="0">StrikeAgent</tspan></tspan></text></g></g></g></g><g data-renderindex="2" class="po-mind-topic" id="topic-4265054a-25b5-48af-8970-a3822520f97f" transform="matrix(1,0,0,1,416.8,-395)" opacity="1"><path d="M6 0 L121.4 0 C121.4 0 127.4 0 127.4 6 L127.4 22 C127.4 22 127.4 28 121.4 28       L6 28 C6 28 0 28 0 22 L0 6 C0 6 0 0 6 0Z" class="po-mind-topic-shape-fill" transform="matrix(1,0,0,1,0,0)" fill="#fcf8eb"></path><path d="M6 0 L121.4 0 C121.4 0 127.4 0 127.4 6 L127.4 22 C127.4 22 127.4 28 121.4 28       L6 28 C6 28 0 28 0 22 L0 6 C0 6 0 0 6 0Z" class="po-mind-topic-shape" transform="matrix(1,0,0,1,0,0)" fill="none" stroke-linecap="round" stroke-width="0" stroke="#eed484"></path><g transform="matrix(1,0,0,1,5,6)"><g data-width="117.4" data-height="16" data-offsetx="0" transform="matrix(1,0,0,1,0,0)"><g><text text-anchor="start" align="top" anchor="start" font-size="14px" font-weight="" fill="rgb(3, 17, 3)" style="font-size: 14px;max-width: 896px;overflow-wrap: break-word;word-break: break-word;text-size-adjust: 100%;color: rgb(3, 17, 3);"><tspan x="0" y="14.000000000000002"><tspan dx="0">StrikeAgent-Coder</tspan></tspan></text></g></g></g></g><g data-renderindex="3" class="po-mind-topic" id="topic-329d2c38-dece-433f-a493-95b0452afdee" transform="matrix(1,0,0,1,416.8,-265)" opacity="1"><path d="M6 0 L136.4 0 C136.4 0 142.4 0 142.4 6 L142.4 22 C142.4 22 142.4 28 136.4 28       L6 28 C6 28 0 28 0 22 L0 6 C0 6 0 0 6 0Z" class="po-mind-topic-shape-fill" transform="matrix(1,0,0,1,0,0)" fill="#fcf8eb"></path><path d="M6 0 L136.4 0 C136.4 0 142.4 0 142.4 6 L142.4 22 C142.4 22 142.4 28 136.4 28       L6 28 C6 28 0 28 0 22 L0 6 C0 6 0 0 6 0Z" class="po-mind-topic-shape" transform="matrix(1,0,0,1,0,0)" fill="none" stroke-linecap="round" stroke-width="0" stroke="#eed484"></path><g transform="matrix(1,0,0,1,5,6)"><g data-width="132.4" data-height="16" data-offsetx="0" transform="matrix(1,0,0,1,0,0)"><g><text text-anchor="start" align="top" anchor="start" font-size="14px" font-weight="" fill="rgb(3, 17, 3)" style="font-size: 14px;max-width: 896px;overflow-wrap: break-word;word-break: break-word;text-size-adjust: 100%;color: rgb(3, 17, 3);"><tspan x="0" y="14.000000000000002"><tspan dx="0">StrikeAgent-AtkBrain</tspan></tspan></text></g></g></g></g><g data-renderindex="4" class="po-mind-topic" id="topic-d4f8cd8b-f3b3-4a3f-80b9-dd37e07ed831" transform="matrix(1,0,0,1,583.2,-343)" opacity="1"><path d="M6 0 L127.4 0 C127.4 0 133.4 0 133.4 6 L133.4 22 C133.4 22 133.4 28 127.4 28       L6 28 C6 28 0 28 0 22 L0 6 C0 6 0 0 6 0Z" class="po-mind-topic-shape-fill" transform="matrix(1,0,0,1,0,0)" fill="#fcf8eb"></path><path d="M6 0 L127.4 0 C127.4 0 133.4 0 133.4 6 L133.4 22 C133.4 22 133.4 28 127.4 28       L6 28 C6 28 0 28 0 22 L0 6 C0 6 0 0 6 0Z" class="po-mind-topic-shape" transform="matrix(1,0,0,1,0,0)" fill="none" stroke-linecap="round" stroke-width="0" stroke="#eed484"></path><g transform="matrix(1,0,0,1,5,6)"><g data-width="123.4" data-height="16" data-offsetx="0" transform="matrix(1,0,0,1,0,0)"><g><text text-anchor="start" align="top" anchor="start" font-size="14px" font-weight="" fill="rgb(3, 17, 3)" style="font-size: 14px;max-width: 896px;overflow-wrap: break-word;word-break: break-word;text-size-adjust: 100%;color: rgb(3, 17, 3);"><tspan x="0" y="14.000000000000002"><tspan dx="0">StrikeAgent-RedInit</tspan></tspan></text></g></g></g></g><g data-renderindex="5" class="po-mind-topic" id="topic-38eea7be-83b0-4973-9130-5f055f4ae48b" transform="matrix(1,0,0,1,583.2,-291)" opacity="1"><path d="M6 0 L138.4 0 C138.4 0 144.4 0 144.4 6 L144.4 22 C144.4 22 144.4 28 138.4 28       L6 28 C6 28 0 28 0 22 L0 6 C0 6 0 0 6 0Z" class="po-mind-topic-shape-fill" transform="matrix(1,0,0,1,0,0)" fill="#fcf8eb"></path><path d="M6 0 L138.4 0 C138.4 0 144.4 0 144.4 6 L144.4 22 C144.4 22 144.4 28 138.4 28       L6 28 C6 28 0 28 0 22 L0 6 C0 6 0 0 6 0Z" class="po-mind-topic-shape" transform="matrix(1,0,0,1,0,0)" fill="none" stroke-linecap="round" stroke-width="0" stroke="#eed484"></path><g transform="matrix(1,0,0,1,5,6)"><g data-width="134.4" data-height="16" data-offsetx="0" transform="matrix(1,0,0,1,0,0)"><g><text text-anchor="start" align="top" anchor="start" font-size="14px" font-weight="" fill="rgb(3, 17, 3)" style="font-size: 14px;max-width: 896px;overflow-wrap: break-word;word-break: break-word;text-size-adjust: 100%;color: rgb(3, 17, 3);"><tspan x="0" y="14.000000000000002"><tspan dx="0">StrikeAgent-VulnFind</tspan></tspan></text></g></g></g></g><g data-renderindex="6" class="po-mind-topic" id="topic-cbf2ca74-bde3-48e5-b477-a9c1764af5a1" transform="matrix(1,0,0,1,583.2,-239)" opacity="1"><path d="M6 0 L110.4 0 C110.4 0 116.4 0 116.4 6 L116.4 22 C116.4 22 116.4 28 110.4 28       L6 28 C6 28 0 28 0 22 L0 6 C0 6 0 0 6 0Z" class="po-mind-topic-shape-fill" transform="matrix(1,0,0,1,0,0)" fill="#fcf8eb"></path><path d="M6 0 L110.4 0 C110.4 0 116.4 0 116.4 6 L116.4 22 C116.4 22 116.4 28 110.4 28       L6 28 C6 28 0 28 0 22 L0 6 C0 6 0 0 6 0Z" class="po-mind-topic-shape" transform="matrix(1,0,0,1,0,0)" fill="none" stroke-linecap="round" stroke-width="0" stroke="#eed484"></path><g transform="matrix(1,0,0,1,5,6)"><g data-width="106.4" data-height="16" data-offsetx="0" transform="matrix(1,0,0,1,0,0)"><g><text text-anchor="start" align="top" anchor="start" font-size="14px" font-weight="" fill="rgb(3, 17, 3)" style="font-size: 14px;max-width: 896px;overflow-wrap: break-word;word-break: break-word;text-size-adjust: 100%;color: rgb(3, 17, 3);"><tspan x="0" y="14.000000000000002"><tspan dx="0">StrikeAgent-CTF</tspan></tspan></text></g></g></g></g><g data-renderindex="7" class="po-mind-topic" id="topic-f3946adb-73c5-4bee-8b53-b4667a6523f7" transform="matrix(1,0,0,1,583.2,-187)" opacity="1"><path d="M6 0 L102.4 0 C102.4 0 108.4 0 108.4 6 L108.4 22 C108.4 22 108.4 28 102.4 28       L6 28 C6 28 0 28 0 22 L0 6 C0 6 0 0 6 0Z" class="po-mind-topic-shape-fill" transform="matrix(1,0,0,1,0,0)" fill="#fcf8eb"></path><path d="M6 0 L102.4 0 C102.4 0 108.4 0 108.4 6 L108.4 22 C108.4 22 108.4 28 102.4 28       L6 28 C6 28 0 28 0 22 L0 6 C0 6 0 0 6 0Z" class="po-mind-topic-shape" transform="matrix(1,0,0,1,0,0)" fill="none" stroke-linecap="round" stroke-width="0" stroke="#eed484"></path><g transform="matrix(1,0,0,1,5,6)"><g data-width="98.4" data-height="16" data-offsetx="0" transform="matrix(1,0,0,1,0,0)"><g><text text-anchor="start" align="top" anchor="start" font-size="14px" font-weight="" fill="rgb(3, 17, 3)" style="font-size: 14px;max-width: 896px;overflow-wrap: break-word;word-break: break-word;text-size-adjust: 100%;color: rgb(3, 17, 3);"><tspan x="0" y="14.000000000000002"><tspan dx="0">StrikeAgent-PE</tspan></tspan></text></g></g></g></g><g data-renderindex="8" class="po-mind-topic" id="summary-3b784b59-bf2d-43d5-99d2-d25a2292367b" transform="matrix(1,0,0,1,763.6,-267)" opacity="1"><path d="M6 0 L62.400000000000006 0 C62.400000000000006 0 68.4 0 68.4 6 L68.4 26 C68.4 26 68.4 32 62.400000000000006 32       L6 32 C6 32 0 32 0 26 L0 6 C0 6 0 0 6 0Z" class="po-mind-topic-shape-fill" transform="matrix(1,0,0,1,0,0)" fill="#eed484"></path><path d="M6 0 L62.400000000000006 0 C62.400000000000006 0 68.4 0 68.4 6 L68.4 26 C68.4 26 68.4 32 62.400000000000006 32       L6 32 C6 32 0 32 0 26 L0 6 C0 6 0 0 6 0Z" class="po-mind-topic-shape" transform="matrix(1,0,0,1,0,0)" fill="none" stroke-linecap="round" stroke-width="0" stroke="#eed484"></path><g transform="matrix(1,0,0,1,16,8)"><g data-width="36.4" data-height="16" data-offsetx="0" transform="matrix(1,0,0,1,0,0)"><g><text text-anchor="start" align="top" anchor="start" font-size="14px" font-weight="" fill="rgb(3, 18, 3)" style="font-size: 14px;max-width: 896px;overflow-wrap: break-word;word-break: break-word;text-size-adjust: 100%;color: rgb(3, 18, 3);"><tspan x="0" y="14.000000000000002"><tspan dx="0">result</tspan></tspan></text></g></g></g></g><g data-renderindex="9" class="po-mind-topic" id="topic-2e8cd51f-2cc7-45a1-9fe7-6e6cb758c3c0" transform="matrix(1,0,0,1,416.8,-135)" opacity="1"><path d="M6 0 L113.4 0 C113.4 0 119.4 0 119.4 6 L119.4 22 C119.4 22 119.4 28 113.4 28       L6 28 C6 28 0 28 0 22 L0 6 C0 6 0 0 6 0Z" class="po-mind-topic-shape-fill" transform="matrix(1,0,0,1,0,0)" fill="#fcf8eb"></path><path d="M6 0 L113.4 0 C113.4 0 119.4 0 119.4 6 L119.4 22 C119.4 22 119.4 28 113.4 28       L6 28 C6 28 0 28 0 22 L0 6 C0 6 0 0 6 0Z" class="po-mind-topic-shape" transform="matrix(1,0,0,1,0,0)" fill="none" stroke-linecap="round" stroke-width="0" stroke="#eed484"></path><g transform="matrix(1,0,0,1,5,6)"><g data-width="109.4" data-height="16" data-offsetx="0" transform="matrix(1,0,0,1,0,0)"><g><text text-anchor="start" align="top" anchor="start" font-size="14px" font-weight="" fill="rgb(3, 17, 3)" style="font-size: 14px;max-width: 896px;overflow-wrap: break-word;word-break: break-word;text-size-adjust: 100%;color: rgb(3, 17, 3);"><tspan x="0" y="14.000000000000002"><tspan dx="0">StrikeAgent-MAP</tspan></tspan></text></g></g></g></g><g data-renderindex="10" class="po-mind-topic" id="topic-a0fc6bf3-0144-49bd-87a2-9588b671b1aa" transform="matrix(1,0,0,1,416.8,-83)" opacity="1"><path d="M6 0 L132.4 0 C132.4 0 138.4 0 138.4 6 L138.4 22 C138.4 22 138.4 28 132.4 28       L6 28 C6 28 0 28 0 22 L0 6 C0 6 0 0 6 0Z" class="po-mind-topic-shape-fill" transform="matrix(1,0,0,1,0,0)" fill="#fcf8eb"></path><path d="M6 0 L132.4 0 C132.4 0 138.4 0 138.4 6 L138.4 22 C138.4 22 138.4 28 132.4 28       L6 28 C6 28 0 28 0 22 L0 6 C0 6 0 0 6 0Z" class="po-mind-topic-shape" transform="matrix(1,0,0,1,0,0)" fill="none" stroke-linecap="round" stroke-width="0" stroke="#eed484"></path><g transform="matrix(1,0,0,1,5,6)"><g data-width="128.4" data-height="16" data-offsetx="0" transform="matrix(1,0,0,1,0,0)"><g><text text-anchor="start" align="top" anchor="start" font-size="14px" font-weight="" fill="rgb(3, 17, 3)" style="font-size: 14px;max-width: 896px;overflow-wrap: break-word;word-break: break-word;text-size-adjust: 100%;color: rgb(3, 17, 3);"><tspan x="0" y="14.000000000000002"><tspan dx="0">StrikeAgent-RAGKB</tspan></tspan></text></g></g></g></g><g data-renderindex="11" class="po-mind-topic" id="topic-ea10b1d4-48b4-4d6a-a0a9-3f4a2b0b4939" transform="matrix(1,0,0,1,416.8,-31)" opacity="1"><path d="M6 0 L122.4 0 C122.4 0 128.4 0 128.4 6 L128.4 22 C128.4 22 128.4 28 122.4 28       L6 28 C6 28 0 28 0 22 L0 6 C0 6 0 0 6 0Z" class="po-mind-topic-shape-fill" transform="matrix(1,0,0,1,0,0)" fill="#fcf8eb"></path><path d="M6 0 L122.4 0 C122.4 0 128.4 0 128.4 6 L128.4 22 C128.4 22 128.4 28 122.4 28       L6 28 C6 28 0 28 0 22 L0 6 C0 6 0 0 6 0Z" class="po-mind-topic-shape" transform="matrix(1,0,0,1,0,0)" fill="none" stroke-linecap="round" stroke-width="0" stroke="#eed484"></path><g transform="matrix(1,0,0,1,5,6)"><g data-width="118.4" data-height="16" data-offsetx="0" transform="matrix(1,0,0,1,0,0)"><g><text text-anchor="start" align="top" anchor="start" font-size="14px" font-weight="" fill="rgb(3, 17, 3)" style="font-size: 14px;max-width: 896px;overflow-wrap: break-word;word-break: break-word;text-size-adjust: 100%;color: rgb(3, 17, 3);"><tspan x="0" y="14.000000000000002"><tspan dx="0">StrikeAgent-VulDB</tspan></tspan></text></g></g></g></g><g data-renderindex="12" class="po-mind-topic" id="summary-0393d61b-0d2a-4f13-baa8-8f5fe8b7303b" transform="matrix(1,0,0,1,591.2,-85)" opacity="1"><path d="M6 0 L72.4 0 C72.4 0 78.4 0 78.4 6 L78.4 26 C78.4 26 78.4 32 72.4 32       L6 32 C6 32 0 32 0 26 L0 6 C0 6 0 0 6 0Z" class="po-mind-topic-shape-fill" transform="matrix(1,0,0,1,0,0)" fill="#eed484"></path><path d="M6 0 L72.4 0 C72.4 0 78.4 0 78.4 6 L78.4 26 C78.4 26 78.4 32 72.4 32       L6 32 C6 32 0 32 0 26 L0 6 C0 6 0 0 6 0Z" class="po-mind-topic-shape" transform="matrix(1,0,0,1,0,0)" fill="none" stroke-linecap="round" stroke-width="0" stroke="#eed484"></path><g transform="matrix(1,0,0,1,16,8)"><g data-width="46.4" data-height="16" data-offsetx="0" transform="matrix(1,0,0,1,0,0)"><g><text text-anchor="start" align="top" anchor="start" font-size="14px" font-weight="" fill="rgb(3, 18, 3)" style="font-size: 14px;max-width: 896px;overflow-wrap: break-word;word-break: break-word;text-size-adjust: 100%;color: rgb(3, 18, 3);"><tspan x="0" y="14.000000000000002"><tspan dx="0">Enable</tspan></tspan></text></g></g></g></g><g data-renderindex="13" class="po-mind-topic" id="topic-a7c7647a9eb6" transform="matrix(1,0,0,1,265,180.5)"><path d="M8 0 L109.8 0 C109.8 0 117.8 0 117.8 8 L117.8 29 C117.8 29 117.8 37 109.8 37       L8 37 C8 37 0 37 0 29 L0 8 C0 8 0 0 8 0Z" class="po-mind-topic-shape-fill" transform="matrix(1,0,0,1,0,0)" fill="#729b8d"></path><path d="M8 0 L109.8 0 C109.8 0 117.8 0 117.8 8 L117.8 29 C117.8 29 117.8 37 109.8 37       L8 37 C8 37 0 37 0 29 L0 8 C0 8 0 0 8 0Z" class="po-mind-topic-shape" transform="matrix(1,0,0,1,0,0)" fill="none" stroke-linecap="round" stroke-width="0" stroke="#729b8d"></path><g transform="matrix(1,0,0,1,16,8)"><g data-width="85.8" data-height="21" data-offsetx="0" transform="matrix(1,0,0,1,0,0)"><g><text text-anchor="start" align="top" anchor="start" font-size="18px" font-weight="" fill="rgb(253, 253, 253)" style="font-size: 18px;max-width: 900px;overflow-wrap: break-word;word-break: break-word;text-size-adjust: 100%;color: rgb(253, 253, 253);"><tspan x="0" y="18"><tspan dx="0">StrikeGPT</tspan></tspan></text></g></g></g></g><g data-renderindex="14" class="po-mind-topic" id="topic-0995f5fc-3712-453a-a010-337ad5ee5e9b" transform="matrix(1,0,0,1,406.8,81)"><path d="M6 0 L218.4 0 C218.4 0 224.4 0 224.4 6 L224.4 22 C224.4 22 224.4 28 218.4 28       L6 28 C6 28 0 28 0 22 L0 6 C0 6 0 0 6 0Z" class="po-mind-topic-shape-fill" transform="matrix(1,0,0,1,0,0)" fill="#e8efed"></path><path d="M6 0 L218.4 0 C218.4 0 224.4 0 224.4 6 L224.4 22 C224.4 22 224.4 28 218.4 28       L6 28 C6 28 0 28 0 22 L0 6 C0 6 0 0 6 0Z" class="po-mind-topic-shape" transform="matrix(1,0,0,1,0,0)" fill="none" stroke-linecap="round" stroke-width="0" stroke="#729b8d"></path><g transform="matrix(1,0,0,1,5,6)"><g data-width="214.4" data-height="16" data-offsetx="0" transform="matrix(1,0,0,1,0,0)"><g><text text-anchor="start" align="top" anchor="start" font-size="14px" font-weight="" fill="rgb(14, 15, 14)" style="font-size: 14px;max-width: 896px;overflow-wrap: break-word;word-break: break-word;text-size-adjust: 100%;color: rgb(14, 15, 14);"><tspan x="0" y="14.000000000000002"><tspan dx="0">Zero Series(Trained from Scratch)</tspan></tspan></text></g></g></g></g><g data-renderindex="15" class="po-mind-topic" id="topic-4fb0344a-33d7-493b-8028-d417bd11e46b" transform="matrix(1,0,0,1,655.2,29)"><path d="M6 0 L103.4 0 C103.4 0 109.4 0 109.4 6 L109.4 22 C109.4 22 109.4 28 103.4 28       L6 28 C6 28 0 28 0 22 L0 6 C0 6 0 0 6 0Z" class="po-mind-topic-shape-fill" transform="matrix(1,0,0,1,0,0)" fill="#e8efed"></path><path d="M6 0 L103.4 0 C103.4 0 109.4 0 109.4 6 L109.4 22 C109.4 22 109.4 28 103.4 28       L6 28 C6 28 0 28 0 22 L0 6 C0 6 0 0 6 0Z" class="po-mind-topic-shape" transform="matrix(1,0,0,1,0,0)" fill="none" stroke-linecap="round" stroke-width="0" stroke="#729b8d"></path><g transform="matrix(1,0,0,1,5,6)"><g data-width="99.4" data-height="16" data-offsetx="0" transform="matrix(1,0,0,1,0,0)"><g><text text-anchor="start" align="top" anchor="start" font-size="14px" font-weight="" fill="rgb(14, 15, 14)" style="font-size: 14px;max-width: 896px;overflow-wrap: break-word;word-break: break-word;text-size-adjust: 100%;color: rgb(14, 15, 14);"><tspan x="0" y="14.000000000000002"><tspan dx="0">StrikeGPT-Zero</tspan></tspan></text></g></g></g></g><g data-renderindex="16" class="po-mind-topic" id="topic-7013fc65-7fb5-4068-ac3d-59c660cd405a" transform="matrix(1,0,0,1,655.2,81)"><path d="M6 0 L126.4 0 C126.4 0 132.4 0 132.4 6 L132.4 22 C132.4 22 132.4 28 126.4 28       L6 28 C6 28 0 28 0 22 L0 6 C0 6 0 0 6 0Z" class="po-mind-topic-shape-fill" transform="matrix(1,0,0,1,0,0)" fill="#e8efed"></path><path d="M6 0 L126.4 0 C126.4 0 132.4 0 132.4 6 L132.4 22 C132.4 22 132.4 28 126.4 28       L6 28 C6 28 0 28 0 22 L0 6 C0 6 0 0 6 0Z" class="po-mind-topic-shape" transform="matrix(1,0,0,1,0,0)" fill="none" stroke-linecap="round" stroke-width="0" stroke="#729b8d"></path><g transform="matrix(1,0,0,1,5,6)"><g data-width="122.4" data-height="16" data-offsetx="0" transform="matrix(1,0,0,1,0,0)"><g><text text-anchor="start" align="top" anchor="start" font-size="14px" font-weight="" fill="rgb(14, 15, 14)" style="font-size: 14px;max-width: 896px;overflow-wrap: break-word;word-break: break-word;text-size-adjust: 100%;color: rgb(14, 15, 14);"><tspan x="0" y="14.000000000000002"><tspan dx="0">StrikeGPT-R1-Zero</tspan></tspan></text></g></g></g></g><g data-renderindex="17" class="po-mind-topic" id="topic-e8ada640-9846-47b1-bdf8-dc73fcf29a92" transform="matrix(1,0,0,1,655.2,133)"><path d="M6 0 L125.4 0 C125.4 0 131.4 0 131.4 6 L131.4 22 C131.4 22 131.4 28 125.4 28       L6 28 C6 28 0 28 0 22 L0 6 C0 6 0 0 6 0Z" class="po-mind-topic-shape-fill" transform="matrix(1,0,0,1,0,0)" fill="#e8efed"></path><path d="M6 0 L125.4 0 C125.4 0 131.4 0 131.4 6 L131.4 22 C131.4 22 131.4 28 125.4 28       L6 28 C6 28 0 28 0 22 L0 6 C0 6 0 0 6 0Z" class="po-mind-topic-shape" transform="matrix(1,0,0,1,0,0)" fill="none" stroke-linecap="round" stroke-width="0" stroke="#729b8d"></path><g transform="matrix(1,0,0,1,5,6)"><g data-width="121.4" data-height="16" data-offsetx="0" transform="matrix(1,0,0,1,0,0)"><g><text text-anchor="start" align="top" anchor="start" font-size="14px" font-weight="" fill="rgb(14, 15, 14)" style="font-size: 14px;max-width: 896px;overflow-wrap: break-word;word-break: break-word;text-size-adjust: 100%;color: rgb(14, 15, 14);"><tspan x="0" y="14.000000000000002"><tspan dx="0">StrikeGPT-VL-Zero</tspan></tspan></text></g></g></g></g><g data-renderindex="18" class="po-mind-topic" id="summary-bf52c6e0-5593-4175-b120-b77ecf7d33c6" transform="matrix(1,0,0,1,823.6,79)"><path d="M6 0 L53.4 0 C53.4 0 59.4 0 59.4 6 L59.4 26 C59.4 26 59.4 32 53.4 32       L6 32 C6 32 0 32 0 26 L0 6 C0 6 0 0 6 0Z" class="po-mind-topic-shape-fill" transform="matrix(1,0,0,1,0,0)" fill="#729b8d"></path><path d="M6 0 L53.4 0 C53.4 0 59.4 0 59.4 6 L59.4 26 C59.4 26 59.4 32 53.4 32       L6 32 C6 32 0 32 0 26 L0 6 C0 6 0 0 6 0Z" class="po-mind-topic-shape" transform="matrix(1,0,0,1,0,0)" fill="none" stroke-linecap="round" stroke-width="0" stroke="#729b8d"></path><g transform="matrix(1,0,0,1,16,8)"><g data-width="27.4" data-height="16" data-offsetx="0" transform="matrix(1,0,0,1,0,0)"><g><text text-anchor="start" align="top" anchor="start" font-size="14px" font-weight="" fill="rgb(253, 253, 253)" style="font-size: 14px;max-width: 896px;overflow-wrap: break-word;word-break: break-word;text-size-adjust: 100%;color: rgb(253, 253, 253);"><tspan x="0" y="14.000000000000002"><tspan dx="0">≤1B</tspan></tspan></text></g></g></g></g><g data-renderindex="19" class="po-mind-topic" id="topic-2d72db21-3fe4-4919-9f32-ce11302c19de" transform="matrix(1,0,0,1,406.8,289)"><path d="M6 0 L179.4 0 C179.4 0 185.4 0 185.4 6 L185.4 22 C185.4 22 185.4 28 179.4 28       L6 28 C6 28 0 28 0 22 L0 6 C0 6 0 0 6 0Z" class="po-mind-topic-shape-fill" transform="matrix(1,0,0,1,0,0)" fill="#e8efed"></path><path d="M6 0 L179.4 0 C179.4 0 185.4 0 185.4 6 L185.4 22 C185.4 22 185.4 28 179.4 28       L6 28 C6 28 0 28 0 22 L0 6 C0 6 0 0 6 0Z" class="po-mind-topic-shape" transform="matrix(1,0,0,1,0,0)" fill="none" stroke-linecap="round" stroke-width="0" stroke="#729b8d"></path><g transform="matrix(1,0,0,1,5,6)"><g data-width="175.4" data-height="16" data-offsetx="0" transform="matrix(1,0,0,1,0,0)"><g><text text-anchor="start" align="top" anchor="start" font-size="14px" font-weight="" fill="rgb(14, 15, 14)" style="font-size: 14px;max-width: 896px;overflow-wrap: break-word;word-break: break-word;text-size-adjust: 100%;color: rgb(14, 15, 14);"><tspan x="0" y="14.000000000000002"><tspan dx="0">Non-Zero Series(Retrained)</tspan></tspan></text></g></g></g></g><g data-renderindex="20" class="po-mind-topic" id="topic-033a112f-4f46-4fc3-baf3-2e24d6861b4a" transform="matrix(1,0,0,1,616.2,185)"><path d="M6 0 L71.4 0 C71.4 0 77.4 0 77.4 6 L77.4 22 C77.4 22 77.4 28 71.4 28       L6 28 C6 28 0 28 0 22 L0 6 C0 6 0 0 6 0Z" class="po-mind-topic-shape-fill" transform="matrix(1,0,0,1,0,0)" fill="#e8efed"></path><path d="M6 0 L71.4 0 C71.4 0 77.4 0 77.4 6 L77.4 22 C77.4 22 77.4 28 71.4 28       L6 28 C6 28 0 28 0 22 L0 6 C0 6 0 0 6 0Z" class="po-mind-topic-shape" transform="matrix(1,0,0,1,0,0)" fill="none" stroke-linecap="round" stroke-width="0" stroke="#729b8d"></path><g transform="matrix(1,0,0,1,5,6)"><g data-width="67.4" data-height="16" data-offsetx="0" transform="matrix(1,0,0,1,0,0)"><g><text text-anchor="start" align="top" anchor="start" font-size="14px" font-weight="" fill="rgb(14, 15, 14)" style="font-size: 14px;max-width: 896px;overflow-wrap: break-word;word-break: break-word;text-size-adjust: 100%;color: rgb(14, 15, 14);"><tspan x="0" y="14.000000000000002"><tspan dx="0">StrikeGPT</tspan></tspan></text></g></g></g></g><g data-renderindex="21" class="po-mind-topic" id="topic-46ed0caf-1c70-4122-a589-a3b96162cdbf" transform="matrix(1,0,0,1,616.2,237)"><path d="M6 0 L92.4 0 C92.4 0 98.4 0 98.4 6 L98.4 22 C98.4 22 98.4 28 92.4 28       L6 28 C6 28 0 28 0 22 L0 6 C0 6 0 0 6 0Z" class="po-mind-topic-shape-fill" transform="matrix(1,0,0,1,0,0)" fill="#e8efed"></path><path d="M6 0 L92.4 0 C92.4 0 98.4 0 98.4 6 L98.4 22 C98.4 22 98.4 28 92.4 28       L6 28 C6 28 0 28 0 22 L0 6 C0 6 0 0 6 0Z" class="po-mind-topic-shape" transform="matrix(1,0,0,1,0,0)" fill="none" stroke-linecap="round" stroke-width="0" stroke="#729b8d"></path><g transform="matrix(1,0,0,1,5,6)"><g data-width="88.4" data-height="16" data-offsetx="0" transform="matrix(1,0,0,1,0,0)"><g><text text-anchor="start" align="top" anchor="start" font-size="14px" font-weight="" fill="rgb(14, 15, 14)" style="font-size: 14px;max-width: 896px;overflow-wrap: break-word;word-break: break-word;text-size-adjust: 100%;color: rgb(14, 15, 14);"><tspan x="0" y="14.000000000000002"><tspan dx="0">StrikeGPT-R1</tspan></tspan></text></g></g></g></g><g data-renderindex="22" class="po-mind-topic" id="topic-6942951c-fde1-427c-b67d-21c32332dd43" transform="matrix(1,0,0,1,616.2,289)"><path d="M6 0 L92.4 0 C92.4 0 98.4 0 98.4 6 L98.4 22 C98.4 22 98.4 28 92.4 28       L6 28 C6 28 0 28 0 22 L0 6 C0 6 0 0 6 0Z" class="po-mind-topic-shape-fill" transform="matrix(1,0,0,1,0,0)" fill="#e8efed"></path><path d="M6 0 L92.4 0 C92.4 0 98.4 0 98.4 6 L98.4 22 C98.4 22 98.4 28 92.4 28       L6 28 C6 28 0 28 0 22 L0 6 C0 6 0 0 6 0Z" class="po-mind-topic-shape" transform="matrix(1,0,0,1,0,0)" fill="none" stroke-linecap="round" stroke-width="0" stroke="#729b8d"></path><g transform="matrix(1,0,0,1,5,6)"><g data-width="88.4" data-height="16" data-offsetx="0" transform="matrix(1,0,0,1,0,0)"><g><text text-anchor="start" align="top" anchor="start" font-size="14px" font-weight="" fill="rgb(14, 15, 14)" style="font-size: 14px;max-width: 896px;overflow-wrap: break-word;word-break: break-word;text-size-adjust: 100%;color: rgb(14, 15, 14);"><tspan x="0" y="14.000000000000002"><tspan dx="0">StrikeGPT-VL</tspan></tspan></text></g></g></g></g><g data-renderindex="23" class="po-mind-topic" id="topic-a670cc93-a286-4115-a3cb-cfbbe71c41ac" transform="matrix(1,0,0,1,616.2,341)"><path d="M6 0 L114.4 0 C114.4 0 120.4 0 120.4 6 L120.4 22 C120.4 22 120.4 28 114.4 28       L6 28 C6 28 0 28 0 22 L0 6 C0 6 0 0 6 0Z" class="po-mind-topic-shape-fill" transform="matrix(1,0,0,1,0,0)" fill="#e8efed"></path><path d="M6 0 L114.4 0 C114.4 0 120.4 0 120.4 6 L120.4 22 C120.4 22 120.4 28 114.4 28       L6 28 C6 28 0 28 0 22 L0 6 C0 6 0 0 6 0Z" class="po-mind-topic-shape" transform="matrix(1,0,0,1,0,0)" fill="none" stroke-linecap="round" stroke-width="0" stroke="#729b8d"></path><g transform="matrix(1,0,0,1,5,6)"><g data-width="110.4" data-height="16" data-offsetx="0" transform="matrix(1,0,0,1,0,0)"><g><text text-anchor="start" align="top" anchor="start" font-size="14px" font-weight="" fill="rgb(14, 15, 14)" style="font-size: 14px;max-width: 896px;overflow-wrap: break-word;word-break: break-word;text-size-adjust: 100%;color: rgb(14, 15, 14);"><tspan x="0" y="14.000000000000002"><tspan dx="0">StrikeGPT-VL-R1</tspan></tspan></text></g></g></g></g><g data-renderindex="24" class="po-mind-topic" id="topic-09cfa7d7-ae83-481c-9ad4-b07d106041ea" transform="matrix(1,0,0,1,616.2,393)"><path d="M6 0 L113.4 0 C113.4 0 119.4 0 119.4 6 L119.4 22 C119.4 22 119.4 28 113.4 28       L6 28 C6 28 0 28 0 22 L0 6 C0 6 0 0 6 0Z" class="po-mind-topic-shape-fill" transform="matrix(1,0,0,1,0,0)" fill="#e8efed"></path><path d="M6 0 L113.4 0 C113.4 0 119.4 0 119.4 6 L119.4 22 C119.4 22 119.4 28 113.4 28       L6 28 C6 28 0 28 0 22 L0 6 C0 6 0 0 6 0Z" class="po-mind-topic-shape" transform="matrix(1,0,0,1,0,0)" fill="none" stroke-linecap="round" stroke-width="0" stroke="#729b8d"></path><g transform="matrix(1,0,0,1,5,6)"><g data-width="109.4" data-height="16" data-offsetx="0" transform="matrix(1,0,0,1,0,0)"><g><text text-anchor="start" align="top" anchor="start" font-size="14px" font-weight="" fill="rgb(14, 15, 14)" style="font-size: 14px;max-width: 896px;overflow-wrap: break-word;word-break: break-word;text-size-adjust: 100%;color: rgb(14, 15, 14);"><tspan x="0" y="14.000000000000002"><tspan dx="0">StrikeGPT-Coder</tspan></tspan></text></g></g></g></g><g data-renderindex="25" class="po-mind-topic" id="summary-0fb47715-1284-4f19-a5b2-46b25e3d5432" transform="matrix(1,0,0,1,772.6,287)"><path d="M6 0 L61.400000000000006 0 C61.400000000000006 0 67.4 0 67.4 6 L67.4 26 C67.4 26 67.4 32 61.400000000000006 32       L6 32 C6 32 0 32 0 26 L0 6 C0 6 0 0 6 0Z" class="po-mind-topic-shape-fill" transform="matrix(1,0,0,1,0,0)" fill="#729b8d"></path><path d="M6 0 L61.400000000000006 0 C61.400000000000006 0 67.4 0 67.4 6 L67.4 26 C67.4 26 67.4 32 61.400000000000006 32       L6 32 C6 32 0 32 0 26 L0 6 C0 6 0 0 6 0Z" class="po-mind-topic-shape" transform="matrix(1,0,0,1,0,0)" fill="none" stroke-linecap="round" stroke-width="0" stroke="#729b8d"></path><g transform="matrix(1,0,0,1,16,8)"><g data-width="35.4" data-height="16" data-offsetx="0" transform="matrix(1,0,0,1,0,0)"><g><text text-anchor="start" align="top" anchor="start" font-size="14px" font-weight="" fill="rgb(253, 253, 253)" style="font-size: 14px;max-width: 896px;overflow-wrap: break-word;word-break: break-word;text-size-adjust: 100%;color: rgb(253, 253, 253);"><tspan x="0" y="14.000000000000002"><tspan dx="0">≤40B</tspan></tspan></text></g></g></g></g></g><g class="po-mind-after-node-line-container"></g><g class="po-mind-associative-line-label-container"></g></g><g id="wpsexport-watermark"><defs><pattern patternUnits="userSpaceOnUse" id="wpspattern_mark_0" width="300" height="300"><text x="150" y="100" fill="#0000004d" font-size="18" transform="rotate(-45, 150, 150)" style="dominant-baseline: middle; text-anchor: middle;"></text></pattern></defs><rect fill="url(#wpspattern_mark_0)" x="0" y="0" width="1134" height="866" id="rect_mark_0" pointer-events="none"></rect></g><style>
    .connection-svg{
        outline: none;
        box-shadow: none;
        -webkit-tap-highlight-color: transparent;
    }
    .connection-line {
        cursor: pointer;
    }

    .connection-line-bg {
        cursor: pointer;
    }

    .node-add-btn,.table-add-btn {
        cursor: pointer;
    }

    .po-richtext-node-wrap ol,
    .area_box ol,
    .po-measureCustomNode ol {
        padding-left: 20px;
        margin: 0;
    }
    .po-richtext-node-wrap ol li,
    .area_box ol li,
    .po-measureCustomNode ol li {
        list-style: decimal;
    }
    .po-richtext-node-wrap ul,
    .area_box ul,
    .po-measureCustomNode ul {
        padding-left: calc(15px + 0.5em);
        list-style: none;
        margin: 0;
    }
    .po-richtext-node-wrap ul li,
    .area_box ul li,
    .po-measureCustomNode ul li {
        list-style: disc;
    }
    .po-richtext-node-wrap p,
    .po-richtext-node-wrap h1,
    .po-richtext-node-wrap h2,
    .po-richtext-node-wrap h3,
    .po-richtext-node-wrap h4,
    .po-richtext-node-wrap h5,
    .po-richtext-node-wrap h6,
    .area_box p,
    .area_box h1,
    .area_box h2,
    .area_box h3,
    .area_box h4,
    .area_box h5,
    .area_box h6,
    .po-measureCustomNode p,
    .po-measureCustomNode h1,
    .po-measureCustomNode h2,
    .po-measureCustomNode h3,
    .po-measureCustomNode h4,
    .po-measureCustomNode h5,
    .po-measureCustomNode h6 {
        margin: 0;
    }
    .po-safari-fixed {
        position: fixed;
    }
    .spacePressed {
        cursor: -webkit-grab !important;
        cursor: grab !important;
        &amp;.moveing {
            cursor: -webkit-grabbing !important;
            cursor: grabbing !important;
        }
        .po-mind-container {
            pointer-events: none;
        }
    }
</style></svg>